<svg width="120" height="122" viewBox="0 0 120 122" fill="none" xmlns="http://www.w3.org/2000/svg">
<path d="M18.6644 121.479C27.0236 121.479 33.8 114.98 33.8 106.963C33.8 98.9467 27.0236 92.4479 18.6644 92.4479C10.3052 92.4479 3.52881 98.9467 3.52881 106.963C3.52881 114.98 10.3052 121.479 18.6644 121.479Z" stroke="white" stroke-miterlimit="10"/>
<path d="M21.5321 118.499C29.8913 118.499 36.6677 112.001 36.6677 103.984C36.6677 95.9671 29.8913 89.4683 21.5321 89.4683C13.173 89.4683 6.39655 95.9671 6.39655 103.984C6.39655 112.001 13.173 118.499 21.5321 118.499Z" stroke="white" stroke-miterlimit="10"/>
<path d="M21.5321 113.992C29.8913 113.992 36.6677 107.493 36.6677 99.4764C36.6677 91.4597 29.8913 84.9609 21.5321 84.9609C13.173 84.9609 6.39655 91.4597 6.39655 99.4764C6.39655 107.493 13.173 113.992 21.5321 113.992Z" stroke="white" stroke-miterlimit="10"/>
<path d="M21.5321 109.408C29.8913 109.408 36.6677 102.909 36.6677 94.8925C36.6677 86.8758 29.8913 80.377 21.5321 80.377C13.173 80.377 6.39655 86.8758 6.39655 94.8925C6.39655 102.909 13.173 109.408 21.5321 109.408Z" stroke="white" stroke-miterlimit="10"/>
<path d="M21.5321 104.901C29.8913 104.901 36.6677 98.4018 36.6677 90.3851C36.6677 82.3684 29.8913 75.8696 21.5321 75.8696C13.173 75.8696 6.39655 82.3684 6.39655 90.3851C6.39655 98.4018 13.173 104.901 21.5321 104.901Z" stroke="white" stroke-miterlimit="10"/>
<path d="M21.5321 100.317C29.8913 100.317 36.6677 93.8179 36.6677 85.8012C36.6677 77.7845 29.8913 71.2857 21.5321 71.2857C13.173 71.2857 6.39655 77.7845 6.39655 85.8012C6.39655 93.8179 13.173 100.317 21.5321 100.317Z" stroke="white" stroke-miterlimit="10"/>
<path d="M21.5321 95.8093C29.8913 95.8093 36.6677 89.3105 36.6677 81.2938C36.6677 73.2771 29.8913 66.7783 21.5321 66.7783C13.173 66.7783 6.39655 73.2771 6.39655 81.2938C6.39655 89.3105 13.173 95.8093 21.5321 95.8093Z" stroke="white" stroke-miterlimit="10"/>
<path d="M21.5321 91.2255C29.8913 91.2255 36.6677 84.7266 36.6677 76.7099C36.6677 68.6932 29.8913 62.1944 21.5321 62.1944C13.173 62.1944 6.39655 68.6932 6.39655 76.7099C6.39655 84.7266 13.173 91.2255 21.5321 91.2255Z" stroke="white" stroke-miterlimit="10"/>
<path d="M21.5321 86.718C29.8913 86.718 36.6677 80.2192 36.6677 72.2025C36.6677 64.1858 29.8913 57.687 21.5321 57.687C13.173 57.687 6.39655 64.1858 6.39655 72.2025C6.39655 80.2192 13.173 86.718 21.5321 86.718Z" stroke="white" stroke-miterlimit="10"/>
<path d="M21.5321 82.2106C29.8913 82.2106 36.6677 75.7117 36.6677 67.695C36.6677 59.6783 29.8913 53.1795 21.5321 53.1795C13.173 53.1795 6.39655 59.6783 6.39655 67.695C6.39655 75.7117 13.173 82.2106 21.5321 82.2106Z" stroke="white" stroke-miterlimit="10"/>
<path d="M21.6119 77.6267C29.9711 77.6267 36.7475 71.1279 36.7475 63.1112C36.7475 55.0945 29.9711 48.5956 21.6119 48.5956C13.2528 48.5956 6.47632 55.0945 6.47632 63.1112C6.47632 71.1279 13.2528 77.6267 21.6119 77.6267Z" stroke="white" stroke-miterlimit="10"/>
<path d="M22.4085 73.0428C30.7677 73.0428 37.5441 66.544 37.5441 58.5273C37.5441 50.5106 30.7677 44.0118 22.4085 44.0118C14.0494 44.0118 7.27292 50.5106 7.27292 58.5273C7.27292 66.544 14.0494 73.0428 22.4085 73.0428Z" stroke="white" stroke-miterlimit="10"/>
<path d="M23.8424 68.6118C32.2015 68.6118 38.9779 62.113 38.9779 54.0963C38.9779 46.0796 32.2015 39.5807 23.8424 39.5807C15.4832 39.5807 8.70676 46.0796 8.70676 54.0963C8.70676 62.113 15.4832 68.6118 23.8424 68.6118Z" stroke="white" stroke-miterlimit="10"/>
<path d="M25.9933 64.3335C34.3524 64.3335 41.1289 57.8347 41.1289 49.818C41.1289 41.8013 34.3524 35.3025 25.9933 35.3025C17.6341 35.3025 10.8577 41.8013 10.8577 49.818C10.8577 57.8347 17.6341 64.3335 25.9933 64.3335Z" stroke="white" stroke-miterlimit="10"/>
<path d="M28.622 60.2845C36.9812 60.2845 43.7576 53.7857 43.7576 45.7689C43.7576 37.7522 36.9812 31.2534 28.622 31.2534C20.2629 31.2534 13.4864 37.7522 13.4864 45.7689C13.4864 53.7857 20.2629 60.2845 28.622 60.2845Z" stroke="white" stroke-miterlimit="10"/>
<path d="M31.8084 56.3882C40.1676 56.3882 46.944 49.8893 46.944 41.8726C46.944 33.8559 40.1676 27.3571 31.8084 27.3571C23.4493 27.3571 16.6729 33.8559 16.6729 41.8726C16.6729 49.8893 23.4493 56.3882 31.8084 56.3882Z" stroke="white" stroke-miterlimit="10"/>
<path d="M35.3135 52.7211C43.6727 52.7211 50.4491 46.2223 50.4491 38.2056C50.4491 30.1889 43.6727 23.6901 35.3135 23.6901C26.9544 23.6901 20.1779 30.1889 20.1779 38.2056C20.1779 46.2223 26.9544 52.7211 35.3135 52.7211Z" stroke="white" stroke-miterlimit="10"/>
<path d="M39.1373 49.3596C47.4965 49.3596 54.2729 42.8608 54.2729 34.8441C54.2729 26.8274 47.4965 20.3286 39.1373 20.3286C30.7782 20.3286 24.0017 26.8274 24.0017 34.8441C24.0017 42.8608 30.7782 49.3596 39.1373 49.3596Z" stroke="white" stroke-miterlimit="10"/>
<path d="M43.2 46.3037C51.5592 46.3037 58.3356 39.8049 58.3356 31.7882C58.3356 23.7715 51.5592 17.2726 43.2 17.2726C34.8409 17.2726 28.0644 23.7715 28.0644 31.7882C28.0644 39.8049 34.8409 46.3037 43.2 46.3037Z" stroke="white" stroke-miterlimit="10"/>
<path d="M47.422 43.5535C55.7812 43.5535 62.5576 37.0546 62.5576 29.0379C62.5576 21.0212 55.7812 14.5224 47.422 14.5224C39.0628 14.5224 32.2864 21.0212 32.2864 29.0379C32.2864 37.0546 39.0628 43.5535 47.422 43.5535Z" stroke="white" stroke-miterlimit="10"/>
<path d="M51.7237 41.185C60.0829 41.185 66.8593 34.6862 66.8593 26.6695C66.8593 18.6528 60.0829 12.154 51.7237 12.154C43.3645 12.154 36.5881 18.6528 36.5881 26.6695C36.5881 34.6862 43.3645 41.185 51.7237 41.185Z" stroke="white" stroke-miterlimit="10"/>
<path d="M55.9458 39.1224C64.305 39.1224 71.0814 32.6235 71.0814 24.6068C71.0814 16.5901 64.305 10.0913 55.9458 10.0913C47.5866 10.0913 40.8102 16.5901 40.8102 24.6068C40.8102 32.6235 47.5866 39.1224 55.9458 39.1224Z" stroke="white" stroke-miterlimit="10"/>
<path d="M60.0881 37.518C68.4473 37.518 75.2237 31.0192 75.2237 23.0025C75.2237 14.9858 68.4473 8.48694 60.0881 8.48694C51.729 8.48694 44.9525 14.9858 44.9525 23.0025C44.9525 31.0192 51.729 37.518 60.0881 37.518Z" stroke="white" stroke-miterlimit="10"/>
<path d="M63.9915 36.3721C72.3507 36.3721 79.1271 29.8732 79.1271 21.8565C79.1271 13.8398 72.3507 7.341 63.9915 7.341C55.6324 7.341 48.8559 13.8398 48.8559 21.8565C48.8559 29.8732 55.6324 36.3721 63.9915 36.3721Z" stroke="white" stroke-miterlimit="10"/>
<path d="M67.6559 35.7609C76.0151 35.7609 82.7915 29.2621 82.7915 21.2454C82.7915 13.2287 76.0151 6.72986 67.6559 6.72986C59.2968 6.72986 52.5203 13.2287 52.5203 21.2454C52.5203 29.2621 59.2968 35.7609 67.6559 35.7609Z" stroke="white" stroke-miterlimit="10"/>
<path d="M71.2407 35.5317C79.5998 35.5317 86.3763 29.0328 86.3763 21.0161C86.3763 12.9994 79.5998 6.50061 71.2407 6.50061C62.8815 6.50061 56.1051 12.9994 56.1051 21.0161C56.1051 29.0328 62.8815 35.5317 71.2407 35.5317Z" stroke="white" stroke-miterlimit="10"/>
<path d="M75.9407 35.5317C84.2998 35.5317 91.0763 29.0328 91.0763 21.0161C91.0763 12.9994 84.2998 6.50061 75.9407 6.50061C67.5815 6.50061 60.8051 12.9994 60.8051 21.0161C60.8051 29.0328 67.5815 35.5317 75.9407 35.5317Z" stroke="white" stroke-miterlimit="10"/>
<path d="M80.7203 35.5317C89.0795 35.5317 95.8559 29.0328 95.8559 21.0161C95.8559 12.9994 89.0795 6.50061 80.7203 6.50061C72.3612 6.50061 65.5847 12.9994 65.5847 21.0161C65.5847 29.0328 72.3612 35.5317 80.7203 35.5317Z" stroke="white" stroke-miterlimit="10"/>
<path d="M85.4204 35.5317C93.7795 35.5317 100.556 29.0328 100.556 21.0161C100.556 12.9994 93.7795 6.50061 85.4204 6.50061C77.0612 6.50061 70.2848 12.9994 70.2848 21.0161C70.2848 29.0328 77.0612 35.5317 85.4204 35.5317Z" stroke="white" stroke-miterlimit="10"/>
<path d="M90.3593 35.6844C98.7185 35.6844 105.495 29.1856 105.495 21.1689C105.495 13.1522 98.7185 6.65338 90.3593 6.65338C82.0002 6.65338 75.2237 13.1522 75.2237 21.1689C75.2237 29.1856 82.0002 35.6844 90.3593 35.6844Z" stroke="white" stroke-miterlimit="10"/>
<path d="M94.422 37.2125C102.781 37.2125 109.558 30.7136 109.558 22.6969C109.558 14.6802 102.781 8.1814 94.422 8.1814C86.0628 8.1814 79.2864 14.6802 79.2864 22.6969C79.2864 30.7136 86.0628 37.2125 94.422 37.2125Z" stroke="white" stroke-miterlimit="10"/>
<path d="M96.8916 40.4211C105.251 40.4211 112.027 33.9222 112.027 25.9055C112.027 17.8888 105.251 11.39 96.8916 11.39C88.5324 11.39 81.756 17.8888 81.756 25.9055C81.756 33.9222 88.5324 40.4211 96.8916 40.4211Z" stroke="white" stroke-miterlimit="10"/>
<path d="M97.8475 45.3105C106.207 45.3105 112.983 38.8117 112.983 30.795C112.983 22.7783 106.207 16.2795 97.8475 16.2795C89.4883 16.2795 82.7119 22.7783 82.7119 30.795C82.7119 38.8117 89.4883 45.3105 97.8475 45.3105Z" stroke="white" stroke-miterlimit="10"/>
<path d="M97.8475 50.0472C106.207 50.0472 112.983 43.5484 112.983 35.5317C112.983 27.515 106.207 21.0162 97.8475 21.0162C89.4883 21.0162 82.7119 27.515 82.7119 35.5317C82.7119 43.5484 89.4883 50.0472 97.8475 50.0472Z" stroke="white" stroke-miterlimit="10"/>
<path d="M97.8475 54.6311C106.207 54.6311 112.983 48.1323 112.983 40.1156C112.983 32.0989 106.207 25.6 97.8475 25.6C89.4883 25.6 82.7119 32.0989 82.7119 40.1156C82.7119 48.1323 89.4883 54.6311 97.8475 54.6311Z" stroke="white" stroke-miterlimit="10"/>
<path d="M97.8475 59.1385C106.207 59.1385 112.983 52.6397 112.983 44.6229C112.983 36.6062 106.207 30.1074 97.8475 30.1074C89.4883 30.1074 82.7119 36.6062 82.7119 44.6229C82.7119 52.6397 89.4883 59.1385 97.8475 59.1385Z" stroke="white" stroke-miterlimit="10"/>
<path d="M97.8475 63.7223C106.207 63.7223 112.983 57.2235 112.983 49.2068C112.983 41.1901 106.207 34.6913 97.8475 34.6913C89.4883 34.6913 82.7119 41.1901 82.7119 49.2068C82.7119 57.2235 89.4883 63.7223 97.8475 63.7223Z" stroke="white" stroke-miterlimit="10"/>
<path d="M97.8475 68.2298C106.207 68.2298 112.983 61.731 112.983 53.7143C112.983 45.6976 106.207 39.1987 97.8475 39.1987C89.4883 39.1987 82.7119 45.6976 82.7119 53.7143C82.7119 61.731 89.4883 68.2298 97.8475 68.2298Z" stroke="white" stroke-miterlimit="10"/>
<path d="M97.8475 72.7373C106.207 72.7373 112.983 66.2385 112.983 58.2218C112.983 50.2051 106.207 43.7062 97.8475 43.7062C89.4883 43.7062 82.7119 50.2051 82.7119 58.2218C82.7119 66.2385 89.4883 72.7373 97.8475 72.7373Z" stroke="white" stroke-miterlimit="10"/>
<path d="M97.8475 77.3212C106.207 77.3212 112.983 70.8223 112.983 62.8056C112.983 54.7889 106.207 48.2901 97.8475 48.2901C89.4883 48.2901 82.7119 54.7889 82.7119 62.8056C82.7119 70.8223 89.4883 77.3212 97.8475 77.3212Z" stroke="white" stroke-miterlimit="10"/>
<path d="M97.8475 81.8285C106.207 81.8285 112.983 75.3297 112.983 67.313C112.983 59.2963 106.207 52.7975 97.8475 52.7975C89.4883 52.7975 82.7119 59.2963 82.7119 67.313C82.7119 75.3297 89.4883 81.8285 97.8475 81.8285Z" stroke="white" stroke-miterlimit="10"/>
<path d="M97.8475 86.4124C106.207 86.4124 112.983 79.9136 112.983 71.8969C112.983 63.8802 106.207 57.3813 97.8475 57.3813C89.4883 57.3813 82.7119 63.8802 82.7119 71.8969C82.7119 79.9136 89.4883 86.4124 97.8475 86.4124Z" stroke="white" stroke-miterlimit="10"/>
<path d="M97.8475 90.9198C106.207 90.9198 112.983 84.421 112.983 76.4043C112.983 68.3876 106.207 61.8888 97.8475 61.8888C89.4883 61.8888 82.7119 68.3876 82.7119 76.4043C82.7119 84.421 89.4883 90.9198 97.8475 90.9198Z" stroke="white" stroke-miterlimit="10"/>
<path d="M97.8475 95.5037C106.207 95.5037 112.983 89.0049 112.983 80.9882C112.983 72.9715 106.207 66.4727 97.8475 66.4727C89.4883 66.4727 82.7119 72.9715 82.7119 80.9882C82.7119 89.0049 89.4883 95.5037 97.8475 95.5037Z" stroke="white" stroke-miterlimit="10"/>
<path d="M97.8475 100.011C106.207 100.011 112.983 93.5123 112.983 85.4956C112.983 77.4789 106.207 70.9801 97.8475 70.9801C89.4883 70.9801 82.7119 77.4789 82.7119 85.4956C82.7119 93.5123 89.4883 100.011 97.8475 100.011Z" stroke="white" stroke-miterlimit="10"/>
<path d="M97.8475 104.595C106.207 104.595 112.983 98.0962 112.983 90.0795C112.983 82.0628 106.207 75.564 97.8475 75.564C89.4883 75.564 82.7119 82.0628 82.7119 90.0795C82.7119 98.0962 89.4883 104.595 97.8475 104.595Z" stroke="white" stroke-miterlimit="10"/>
<path d="M97.8475 109.102C106.207 109.102 112.983 102.604 112.983 94.5869C112.983 86.5702 106.207 80.0714 97.8475 80.0714C89.4883 80.0714 82.7119 86.5702 82.7119 94.5869C82.7119 102.604 89.4883 109.102 97.8475 109.102Z" stroke="white" stroke-miterlimit="10"/>
<path d="M97.8475 113.61C106.207 113.61 112.983 107.111 112.983 99.0944C112.983 91.0777 106.207 84.5789 97.8475 84.5789C89.4883 84.5789 82.7119 91.0777 82.7119 99.0944C82.7119 107.111 89.4883 113.61 97.8475 113.61Z" stroke="white" stroke-miterlimit="10"/>
<path d="M97.8475 118.194C106.207 118.194 112.983 111.695 112.983 103.678C112.983 95.6615 106.207 89.1627 97.8475 89.1627C89.4883 89.1627 82.7119 95.6615 82.7119 103.678C82.7119 111.695 89.4883 118.194 97.8475 118.194Z" stroke="white" stroke-miterlimit="10"/>
<path d="M100.397 121.479C108.756 121.479 115.532 114.98 115.532 106.963C115.532 98.9467 108.756 92.4479 100.397 92.4479C92.0374 92.4479 85.261 98.9467 85.261 106.963C85.261 114.98 92.0374 121.479 100.397 121.479Z" stroke="white" stroke-miterlimit="10"/>
<path d="M103.583 118.805C111.942 118.805 118.719 112.306 118.719 104.289C118.719 96.2727 111.942 89.7739 103.583 89.7739C95.2239 89.7739 88.4474 96.2727 88.4474 104.289C88.4474 112.306 95.2239 118.805 103.583 118.805Z" stroke="white" stroke-miterlimit="10"/>
<path d="M103.583 114.297C111.942 114.297 118.719 107.799 118.719 99.7819C118.719 91.7652 111.942 85.2664 103.583 85.2664C95.2239 85.2664 88.4474 91.7652 88.4474 99.7819C88.4474 107.799 95.2239 114.297 103.583 114.297Z" stroke="white" stroke-miterlimit="10"/>
<path d="M103.583 109.714C111.942 109.714 118.719 103.215 118.719 95.1981C118.719 87.1814 111.942 80.6826 103.583 80.6826C95.2239 80.6826 88.4474 87.1814 88.4474 95.1981C88.4474 103.215 95.2239 109.714 103.583 109.714Z" stroke="white" stroke-miterlimit="10"/>
<path d="M103.583 105.206C111.942 105.206 118.719 98.7074 118.719 90.6907C118.719 82.674 111.942 76.1752 103.583 76.1752C95.2239 76.1752 88.4474 82.674 88.4474 90.6907C88.4474 98.7074 95.2239 105.206 103.583 105.206Z" stroke="white" stroke-miterlimit="10"/>
<path d="M103.583 100.699C111.942 100.699 118.719 94.1999 118.719 86.1832C118.719 78.1665 111.942 71.6677 103.583 71.6677C95.2239 71.6677 88.4474 78.1665 88.4474 86.1832C88.4474 94.1999 95.2239 100.699 103.583 100.699Z" stroke="white" stroke-miterlimit="10"/>
<path d="M103.583 96.1149C111.942 96.1149 118.719 89.6161 118.719 81.5994C118.719 73.5827 111.942 67.0839 103.583 67.0839C95.2239 67.0839 88.4474 73.5827 88.4474 81.5994C88.4474 89.6161 95.2239 96.1149 103.583 96.1149Z" stroke="white" stroke-miterlimit="10"/>
<path d="M103.583 91.6074C111.942 91.6074 118.719 85.1086 118.719 77.0919C118.719 69.0752 111.942 62.5764 103.583 62.5764C95.2239 62.5764 88.4474 69.0752 88.4474 77.0919C88.4474 85.1086 95.2239 91.6074 103.583 91.6074Z" stroke="white" stroke-miterlimit="10"/>
<path d="M103.583 87.0236C111.942 87.0236 118.719 80.5248 118.719 72.5081C118.719 64.4914 111.942 57.9926 103.583 57.9926C95.2239 57.9926 88.4474 64.4914 88.4474 72.5081C88.4474 80.5248 95.2239 87.0236 103.583 87.0236Z" stroke="white" stroke-miterlimit="10"/>
<path d="M103.583 82.5162C111.942 82.5162 118.719 76.0173 118.719 68.0006C118.719 59.9839 111.942 53.4851 103.583 53.4851C95.2239 53.4851 88.4474 59.9839 88.4474 68.0006C88.4474 76.0173 95.2239 82.5162 103.583 82.5162Z" stroke="white" stroke-miterlimit="10"/>
<path d="M103.583 77.9323C111.942 77.9323 118.719 71.4335 118.719 63.4168C118.719 55.4001 111.942 48.9012 103.583 48.9012C95.2239 48.9012 88.4474 55.4001 88.4474 63.4168C88.4474 71.4335 95.2239 77.9323 103.583 77.9323Z" stroke="white" stroke-miterlimit="10"/>
<path d="M103.583 73.4249C111.942 73.4249 118.719 66.926 118.719 58.9093C118.719 50.8926 111.942 44.3938 103.583 44.3938C95.2239 44.3938 88.4474 50.8926 88.4474 58.9093C88.4474 66.926 95.2239 73.4249 103.583 73.4249Z" stroke="white" stroke-miterlimit="10"/>
<path d="M103.583 68.841C111.942 68.841 118.719 62.3422 118.719 54.3255C118.719 46.3088 111.942 39.8099 103.583 39.8099C95.2239 39.8099 88.4474 46.3088 88.4474 54.3255C88.4474 62.3422 95.2239 68.841 103.583 68.841Z" stroke="white" stroke-miterlimit="10"/>
<path d="M103.583 64.3335C111.942 64.3335 118.719 57.8347 118.719 49.818C118.719 41.8013 111.942 35.3025 103.583 35.3025C95.2239 35.3025 88.4474 41.8013 88.4474 49.818C88.4474 57.8347 95.2239 64.3335 103.583 64.3335Z" stroke="white" stroke-miterlimit="10"/>
<path d="M103.583 59.8261C111.942 59.8261 118.719 53.3273 118.719 45.3106C118.719 37.2939 111.942 30.795 103.583 30.795C95.2239 30.795 88.4474 37.2939 88.4474 45.3106C88.4474 53.3273 95.2239 59.8261 103.583 59.8261Z" stroke="white" stroke-miterlimit="10"/>
<path d="M103.583 55.2422C111.942 55.2422 118.719 48.7434 118.719 40.7267C118.719 32.71 111.942 26.2112 103.583 26.2112C95.2239 26.2112 88.4474 32.71 88.4474 40.7267C88.4474 48.7434 95.2239 55.2422 103.583 55.2422Z" stroke="white" stroke-miterlimit="10"/>
<path d="M103.583 50.7348C111.942 50.7348 118.719 44.236 118.719 36.2193C118.719 28.2026 111.942 21.7037 103.583 21.7037C95.2239 21.7037 88.4474 28.2026 88.4474 36.2193C88.4474 44.236 95.2239 50.7348 103.583 50.7348Z" stroke="white" stroke-miterlimit="10"/>
<path d="M103.583 46.1509C111.942 46.1509 118.719 39.6521 118.719 31.6354C118.719 23.6187 111.942 17.1199 103.583 17.1199C95.2239 17.1199 88.4474 23.6187 88.4474 31.6354C88.4474 39.6521 95.2239 46.1509 103.583 46.1509Z" stroke="white" stroke-miterlimit="10"/>
<path d="M103.025 41.0323C111.385 41.0323 118.161 34.5335 118.161 26.5168C118.161 18.5001 111.385 12.0013 103.025 12.0013C94.6663 12.0013 87.8898 18.5001 87.8898 26.5168C87.8898 34.5335 94.6663 41.0323 103.025 41.0323Z" stroke="white" stroke-miterlimit="10"/>
<path d="M101.353 36.8304C109.712 36.8304 116.488 30.3316 116.488 22.3149C116.488 14.2982 109.712 7.79938 101.353 7.79938C92.9934 7.79938 86.217 14.2982 86.217 22.3149C86.217 30.3316 92.9934 36.8304 101.353 36.8304Z" stroke="white" stroke-miterlimit="10"/>
<path d="M98.7237 33.5453C107.083 33.5453 113.859 27.0465 113.859 19.0298C113.859 11.0131 107.083 4.51428 98.7237 4.51428C90.3645 4.51428 83.5881 11.0131 83.5881 19.0298C83.5881 27.0465 90.3645 33.5453 98.7237 33.5453Z" stroke="white" stroke-miterlimit="10"/>
<path d="M95.0593 31.3298C103.418 31.3298 110.195 24.831 110.195 16.8143C110.195 8.79759 103.418 2.29877 95.0593 2.29877C86.7002 2.29877 79.9237 8.79759 79.9237 16.8143C79.9237 24.831 86.7002 31.3298 95.0593 31.3298Z" stroke="white" stroke-miterlimit="10"/>
<path d="M90.5983 30.1838C98.9575 30.1838 105.734 23.685 105.734 15.6683C105.734 7.65159 98.9575 1.15277 90.5983 1.15277C82.2392 1.15277 75.4627 7.65159 75.4627 15.6683C75.4627 23.685 82.2392 30.1838 90.5983 30.1838Z" stroke="white" stroke-miterlimit="10"/>
<path d="M85.6593 30.0311C94.0184 30.0311 100.795 23.5322 100.795 15.5155C100.795 7.49882 94.0184 1 85.6593 1C77.3001 1 70.5237 7.49882 70.5237 15.5155C70.5237 23.5322 77.3001 30.0311 85.6593 30.0311Z" stroke="white" stroke-miterlimit="10"/>
<path d="M80.8796 30.0311C89.2388 30.0311 96.0152 23.5322 96.0152 15.5155C96.0152 7.49882 89.2388 1 80.8796 1C72.5205 1 65.744 7.49882 65.744 15.5155C65.744 23.5322 72.5205 30.0311 80.8796 30.0311Z" stroke="white" stroke-miterlimit="10"/>
<path d="M76.1797 30.0311C84.5388 30.0311 91.3153 23.5322 91.3153 15.5155C91.3153 7.49882 84.5388 1 76.1797 1C67.8205 1 61.0441 7.49882 61.0441 15.5155C61.0441 23.5322 67.8205 30.0311 76.1797 30.0311Z" stroke="white" stroke-miterlimit="10"/>
<path d="M71.4797 30.0311C79.8388 30.0311 86.6153 23.5322 86.6153 15.5155C86.6153 7.49882 79.8388 1 71.4797 1C63.1205 1 56.3441 7.49882 56.3441 15.5155C56.3441 23.5322 63.1205 30.0311 71.4797 30.0311Z" stroke="white" stroke-miterlimit="10"/>
<path d="M67.5763 30.1838C75.9354 30.1838 82.7119 23.685 82.7119 15.6683C82.7119 7.65159 75.9354 1.15277 67.5763 1.15277C59.2171 1.15277 52.4407 7.65159 52.4407 15.6683C52.4407 23.685 59.2171 30.1838 67.5763 30.1838Z" stroke="white" stroke-miterlimit="10"/>
<path d="M63.5932 30.8714C71.9524 30.8714 78.7288 24.3726 78.7288 16.3559C78.7288 8.33922 71.9524 1.84039 63.5932 1.84039C55.234 1.84039 48.4576 8.33922 48.4576 16.3559C48.4576 24.3726 55.234 30.8714 63.5932 30.8714Z" stroke="white" stroke-miterlimit="10"/>
<path d="M59.2915 32.0174C67.6507 32.0174 74.4271 25.5186 74.4271 17.5019C74.4271 9.48515 67.6507 2.98633 59.2915 2.98633C50.9324 2.98633 44.1559 9.48515 44.1559 17.5019C44.1559 25.5186 50.9324 32.0174 59.2915 32.0174Z" stroke="white" stroke-miterlimit="10"/>
<path d="M54.9101 33.6218C63.2693 33.6218 70.0457 27.1229 70.0457 19.1062C70.0457 11.0895 63.2693 4.5907 54.9101 4.5907C46.551 4.5907 39.7745 11.0895 39.7745 19.1062C39.7745 27.1229 46.551 33.6218 54.9101 33.6218Z" stroke="white" stroke-miterlimit="10"/>
<path d="M50.4492 35.608C58.8083 35.608 65.5848 29.1092 65.5848 21.0925C65.5848 13.0758 58.8083 6.57697 50.4492 6.57697C42.09 6.57697 35.3136 13.0758 35.3136 21.0925C35.3136 29.1092 42.09 35.608 50.4492 35.608Z" stroke="white" stroke-miterlimit="10"/>
<path d="M45.9085 37.9764C54.2677 37.9764 61.0441 31.4776 61.0441 23.4609C61.0441 15.4442 54.2677 8.94537 45.9085 8.94537C37.5494 8.94537 30.7729 15.4442 30.7729 23.4609C30.7729 31.4776 37.5494 37.9764 45.9085 37.9764Z" stroke="white" stroke-miterlimit="10"/>
<path d="M41.4474 40.7267C49.8066 40.7267 56.583 34.2279 56.583 26.2112C56.583 18.1945 49.8066 11.6957 41.4474 11.6957C33.0883 11.6957 26.3118 18.1945 26.3118 26.2112C26.3118 34.2279 33.0883 40.7267 41.4474 40.7267Z" stroke="white" stroke-miterlimit="10"/>
<path d="M37.2254 43.7826C45.5846 43.7826 52.361 37.2838 52.361 29.2671C52.361 21.2503 45.5846 14.7515 37.2254 14.7515C28.8663 14.7515 22.0898 21.2503 22.0898 29.2671C22.0898 37.2838 28.8663 43.7826 37.2254 43.7826Z" stroke="white" stroke-miterlimit="10"/>
<path d="M34.2779 46.0746C42.6371 46.0746 49.4135 39.5758 49.4135 31.559C49.4135 23.5423 42.6371 17.0435 34.2779 17.0435C25.9188 17.0435 19.1423 23.5423 19.1423 31.559C19.1423 39.5758 25.9188 46.0746 34.2779 46.0746Z" stroke="white" stroke-miterlimit="10"/>
<path d="M31.4101 48.6721C39.7693 48.6721 46.5457 42.1733 46.5457 34.1566C46.5457 26.1399 39.7693 19.6411 31.4101 19.6411C23.051 19.6411 16.2745 26.1399 16.2745 34.1566C16.2745 42.1733 23.051 48.6721 31.4101 48.6721Z" stroke="white" stroke-miterlimit="10"/>
<path d="M28.3831 51.6515C36.7422 51.6515 43.5187 45.1527 43.5187 37.136C43.5187 29.1193 36.7422 22.6205 28.3831 22.6205C20.0239 22.6205 13.2475 29.1193 13.2475 37.136C13.2475 45.1527 20.0239 51.6515 28.3831 51.6515Z" stroke="white" stroke-miterlimit="10"/>
<path d="M25.4356 55.013C33.7947 55.013 40.5712 48.5142 40.5712 40.4975C40.5712 32.4808 33.7947 25.982 25.4356 25.982C17.0764 25.982 10.3 32.4808 10.3 40.4975C10.3 48.5142 17.0764 55.013 25.4356 55.013Z" stroke="white" stroke-miterlimit="10"/>
<path d="M22.6474 58.8329C31.0066 58.8329 37.783 52.3341 37.783 44.3174C37.783 36.3007 31.0066 29.8019 22.6474 29.8019C14.2883 29.8019 7.51184 36.3007 7.51184 44.3174C7.51184 52.3341 14.2883 58.8329 22.6474 58.8329Z" stroke="white" stroke-miterlimit="10"/>
<path d="M20.0983 62.9584C28.4575 62.9584 35.2339 56.4595 35.2339 48.4428C35.2339 40.4261 28.4575 33.9273 20.0983 33.9273C11.7392 33.9273 4.96274 40.4261 4.96274 48.4428C4.96274 56.4595 11.7392 62.9584 20.0983 62.9584Z" stroke="white" stroke-miterlimit="10"/>
<path d="M18.1068 67.4659C26.4659 67.4659 33.2424 60.967 33.2424 52.9503C33.2424 44.9336 26.4659 38.4348 18.1068 38.4348C9.74763 38.4348 2.97119 44.9336 2.97119 52.9503C2.97119 60.967 9.74763 67.4659 18.1068 67.4659Z" stroke="white" stroke-miterlimit="10"/>
<path d="M16.5932 72.3553C24.9524 72.3553 31.7288 65.8565 31.7288 57.8398C31.7288 49.8231 24.9524 43.3243 16.5932 43.3243C8.23405 43.3243 1.45761 49.8231 1.45761 57.8398C1.45761 65.8565 8.23405 72.3553 16.5932 72.3553Z" stroke="white" stroke-miterlimit="10"/>
<path d="M15.8763 77.5503C24.2354 77.5503 31.0118 71.0515 31.0118 63.0348C31.0118 55.0181 24.2354 48.5193 15.8763 48.5193C7.5171 48.5193 0.740662 55.0181 0.740662 63.0348C0.740662 71.0515 7.5171 77.5503 15.8763 77.5503Z" stroke="white" stroke-miterlimit="10"/>
<path d="M15.7966 82.3634C24.1558 82.3634 30.9322 75.8646 30.9322 67.8479C30.9322 59.8312 24.1558 53.3323 15.7966 53.3323C7.43745 53.3323 0.661011 59.8312 0.661011 67.8479C0.661011 75.8646 7.43745 82.3634 15.7966 82.3634Z" stroke="white" stroke-miterlimit="10"/>
<path d="M15.7966 86.9472C24.1558 86.9472 30.9322 80.4484 30.9322 72.4317C30.9322 64.415 24.1558 57.9161 15.7966 57.9161C7.43745 57.9161 0.661011 64.415 0.661011 72.4317C0.661011 80.4484 7.43745 86.9472 15.7966 86.9472Z" stroke="white" stroke-miterlimit="10"/>
<path d="M15.7966 91.4547C24.1558 91.4547 30.9322 84.9559 30.9322 76.9392C30.9322 68.9225 24.1558 62.4236 15.7966 62.4236C7.43745 62.4236 0.661011 68.9225 0.661011 76.9392C0.661011 84.9559 7.43745 91.4547 15.7966 91.4547Z" stroke="white" stroke-miterlimit="10"/>
<path d="M15.7966 96.0385C24.1558 96.0385 30.9322 89.5397 30.9322 81.523C30.9322 73.5063 24.1558 67.0074 15.7966 67.0074C7.43745 67.0074 0.661011 73.5063 0.661011 81.523C0.661011 89.5397 7.43745 96.0385 15.7966 96.0385Z" stroke="white" stroke-miterlimit="10"/>
<path d="M15.7966 100.546C24.1558 100.546 30.9322 94.0471 30.9322 86.0304C30.9322 78.0137 24.1558 71.5149 15.7966 71.5149C7.43745 71.5149 0.661011 78.0137 0.661011 86.0304C0.661011 94.0471 7.43745 100.546 15.7966 100.546Z" stroke="white" stroke-miterlimit="10"/>
<path d="M15.7966 105.053C24.1558 105.053 30.9322 98.5546 30.9322 90.5379C30.9322 82.5212 24.1558 76.0224 15.7966 76.0224C7.43745 76.0224 0.661011 82.5212 0.661011 90.5379C0.661011 98.5546 7.43745 105.053 15.7966 105.053Z" stroke="white" stroke-miterlimit="10"/>
<path d="M15.7966 109.637C24.1558 109.637 30.9322 103.138 30.9322 95.1217C30.9322 87.105 24.1558 80.6062 15.7966 80.6062C7.43745 80.6062 0.661011 87.105 0.661011 95.1217C0.661011 103.138 7.43745 109.637 15.7966 109.637Z" stroke="white" stroke-miterlimit="10"/>
<path d="M15.7966 114.145C24.1558 114.145 30.9322 107.646 30.9322 99.6292C30.9322 91.6125 24.1558 85.1136 15.7966 85.1136C7.43745 85.1136 0.661011 91.6125 0.661011 99.6292C0.661011 107.646 7.43745 114.145 15.7966 114.145Z" stroke="white" stroke-miterlimit="10"/>
<path d="M15.7966 118.729C24.1558 118.729 30.9322 112.23 30.9322 104.213C30.9322 96.1963 24.1558 89.6975 15.7966 89.6975C7.43745 89.6975 0.661011 96.1963 0.661011 104.213C0.661011 112.23 7.43745 118.729 15.7966 118.729Z" stroke="white" stroke-miterlimit="10"/>
<path d="M59.6898 80.6825C68.049 80.6825 74.8254 74.1837 74.8254 66.167C74.8254 58.1503 68.049 51.6515 59.6898 51.6515C51.3307 51.6515 44.5542 58.1503 44.5542 66.167C44.5542 74.1837 51.3307 80.6825 59.6898 80.6825Z" stroke="white" stroke-miterlimit="10"/>
<path d="M61.283 81.141C69.6422 81.141 76.4186 74.6422 76.4186 66.6255C76.4186 58.6087 69.6422 52.1099 61.283 52.1099C52.9239 52.1099 46.1474 58.6087 46.1474 66.6255C46.1474 74.6422 52.9239 81.141 61.283 81.141Z" stroke="white" stroke-miterlimit="10"/>
<path d="M62.3983 82.3634C70.7574 82.3634 77.5339 75.8646 77.5339 67.8479C77.5339 59.8312 70.7574 53.3323 62.3983 53.3323C54.0391 53.3323 47.2627 59.8312 47.2627 67.8479C47.2627 75.8646 54.0391 82.3634 62.3983 82.3634Z" stroke="white" stroke-miterlimit="10"/>
<path d="M62.5576 84.0441C70.9167 84.0441 77.6932 77.5452 77.6932 69.5285C77.6932 61.5118 70.9167 55.013 62.5576 55.013C54.1984 55.013 47.422 61.5118 47.422 69.5285C47.422 77.5452 54.1984 84.0441 62.5576 84.0441Z" stroke="white" stroke-miterlimit="10"/>
<path d="M62.5576 85.6484C70.9167 85.6484 77.6932 79.1496 77.6932 71.1329C77.6932 63.1162 70.9167 56.6174 62.5576 56.6174C54.1984 56.6174 47.422 63.1162 47.422 71.1329C47.422 79.1496 54.1984 85.6484 62.5576 85.6484Z" stroke="white" stroke-miterlimit="10"/>
<path d="M62.5576 87.3292C70.9167 87.3292 77.6932 80.8304 77.6932 72.8137C77.6932 64.797 70.9167 58.2982 62.5576 58.2982C54.1984 58.2982 47.422 64.797 47.422 72.8137C47.422 80.8304 54.1984 87.3292 62.5576 87.3292Z" stroke="white" stroke-miterlimit="10"/>
<path d="M62.5576 88.9335C70.9167 88.9335 77.6932 82.4347 77.6932 74.418C77.6932 66.4013 70.9167 59.9025 62.5576 59.9025C54.1984 59.9025 47.422 66.4013 47.422 74.418C47.422 82.4347 54.1984 88.9335 62.5576 88.9335Z" stroke="white" stroke-miterlimit="10"/>
<path d="M62.5576 90.5378C70.9167 90.5378 77.6932 84.039 77.6932 76.0223C77.6932 68.0056 70.9167 61.5068 62.5576 61.5068C54.1984 61.5068 47.422 68.0056 47.422 76.0223C47.422 84.039 54.1984 90.5378 62.5576 90.5378Z" stroke="white" stroke-miterlimit="10"/>
<path d="M62.5576 92.2186C70.9167 92.2186 77.6932 85.7198 77.6932 77.7031C77.6932 69.6864 70.9167 63.1876 62.5576 63.1876C54.1984 63.1876 47.422 69.6864 47.422 77.7031C47.422 85.7198 54.1984 92.2186 62.5576 92.2186Z" stroke="white" stroke-miterlimit="10"/>
<path d="M62.5576 93.823C70.9167 93.823 77.6932 87.3242 77.6932 79.3075C77.6932 71.2908 70.9167 64.7919 62.5576 64.7919C54.1984 64.7919 47.422 71.2908 47.422 79.3075C47.422 87.3242 54.1984 93.823 62.5576 93.823Z" stroke="white" stroke-miterlimit="10"/>
<path d="M62.5576 95.5037C70.9167 95.5037 77.6932 89.0048 77.6932 80.9881C77.6932 72.9714 70.9167 66.4726 62.5576 66.4726C54.1984 66.4726 47.422 72.9714 47.422 80.9881C47.422 89.0048 54.1984 95.5037 62.5576 95.5037Z" stroke="white" stroke-miterlimit="10"/>
<path d="M62.5576 97.108C70.9167 97.108 77.6932 90.6092 77.6932 82.5925C77.6932 74.5758 70.9167 68.077 62.5576 68.077C54.1984 68.077 47.422 74.5758 47.422 82.5925C47.422 90.6092 54.1984 97.108 62.5576 97.108Z" stroke="white" stroke-miterlimit="10"/>
<path d="M62.5576 98.7888C70.9167 98.7888 77.6932 92.29 77.6932 84.2733C77.6932 76.2566 70.9167 69.7578 62.5576 69.7578C54.1984 69.7578 47.422 76.2566 47.422 84.2733C47.422 92.29 54.1984 98.7888 62.5576 98.7888Z" stroke="white" stroke-miterlimit="10"/>
<path d="M62.5576 100.393C70.9167 100.393 77.6932 93.8943 77.6932 85.8776C77.6932 77.8609 70.9167 71.3621 62.5576 71.3621C54.1984 71.3621 47.422 77.8609 47.422 85.8776C47.422 93.8943 54.1984 100.393 62.5576 100.393Z" stroke="white" stroke-miterlimit="10"/>
<path d="M62.5576 102.074C70.9167 102.074 77.6932 95.5751 77.6932 87.5584C77.6932 79.5417 70.9167 73.0428 62.5576 73.0428C54.1984 73.0428 47.422 79.5417 47.422 87.5584C47.422 95.5751 54.1984 102.074 62.5576 102.074Z" stroke="white" stroke-miterlimit="10"/>
<path d="M62.5576 103.678C70.9167 103.678 77.6932 97.1794 77.6932 89.1627C77.6932 81.146 70.9167 74.6472 62.5576 74.6472C54.1984 74.6472 47.422 81.146 47.422 89.1627C47.422 97.1794 54.1984 103.678 62.5576 103.678Z" stroke="white" stroke-miterlimit="10"/>
<path d="M62.5576 105.283C70.9167 105.283 77.6932 98.7838 77.6932 90.7671C77.6932 82.7504 70.9167 76.2516 62.5576 76.2516C54.1984 76.2516 47.422 82.7504 47.422 90.7671C47.422 98.7838 54.1984 105.283 62.5576 105.283Z" stroke="white" stroke-miterlimit="10"/>
<path d="M62.5576 106.963C70.9167 106.963 77.6932 100.464 77.6932 92.4478C77.6932 84.4311 70.9167 77.9323 62.5576 77.9323C54.1984 77.9323 47.422 84.4311 47.422 92.4478C47.422 100.464 54.1984 106.963 62.5576 106.963Z" stroke="white" stroke-miterlimit="10"/>
<path d="M62.5576 108.568C70.9167 108.568 77.6932 102.069 77.6932 94.0522C77.6932 86.0355 70.9167 79.5367 62.5576 79.5367C54.1984 79.5367 47.422 86.0355 47.422 94.0522C47.422 102.069 54.1984 108.568 62.5576 108.568Z" stroke="white" stroke-miterlimit="10"/>
<path d="M62.5576 110.248C70.9167 110.248 77.6932 103.75 77.6932 95.7329C77.6932 87.7162 70.9167 81.2174 62.5576 81.2174C54.1984 81.2174 47.422 87.7162 47.422 95.7329C47.422 103.75 54.1984 110.248 62.5576 110.248Z" stroke="white" stroke-miterlimit="10"/>
<path d="M62.5576 111.853C70.9167 111.853 77.6932 105.354 77.6932 97.3372C77.6932 89.3205 70.9167 82.8217 62.5576 82.8217C54.1984 82.8217 47.422 89.3205 47.422 97.3372C47.422 105.354 54.1984 111.853 62.5576 111.853Z" stroke="white" stroke-miterlimit="10"/>
<path d="M62.5576 113.534C70.9167 113.534 77.6932 107.035 77.6932 99.018C77.6932 91.0013 70.9167 84.5025 62.5576 84.5025C54.1984 84.5025 47.422 91.0013 47.422 99.018C47.422 107.035 54.1984 113.534 62.5576 113.534Z" stroke="white" stroke-miterlimit="10"/>
<path d="M62.5576 115.138C70.9167 115.138 77.6932 108.639 77.6932 100.622C77.6932 92.6056 70.9167 86.1068 62.5576 86.1068C54.1984 86.1068 47.422 92.6056 47.422 100.622C47.422 108.639 54.1984 115.138 62.5576 115.138Z" stroke="white" stroke-miterlimit="10"/>
<path d="M62.5576 116.819C70.9167 116.819 77.6932 110.32 77.6932 102.303C77.6932 94.2864 70.9167 87.7875 62.5576 87.7875C54.1984 87.7875 47.422 94.2864 47.422 102.303C47.422 110.32 54.1984 116.819 62.5576 116.819Z" stroke="white" stroke-miterlimit="10"/>
<path d="M62.5576 118.423C70.9167 118.423 77.6932 111.924 77.6932 103.907C77.6932 95.8907 70.9167 89.3919 62.5576 89.3919C54.1984 89.3919 47.422 95.8907 47.422 103.907C47.422 111.924 54.1984 118.423 62.5576 118.423Z" stroke="white" stroke-miterlimit="10"/>
<path d="M62.2391 120.027C70.5982 120.027 77.3746 113.529 77.3746 105.512C77.3746 97.4951 70.5982 90.9963 62.2391 90.9963C53.8799 90.9963 47.1035 97.4951 47.1035 105.512C47.1035 113.529 53.8799 120.027 62.2391 120.027Z" stroke="white" stroke-miterlimit="10"/>
<path d="M61.0441 121.173C69.4033 121.173 76.1797 114.675 76.1797 106.658C76.1797 98.6411 69.4033 92.1423 61.0441 92.1423C52.6849 92.1423 45.9085 98.6411 45.9085 106.658C45.9085 114.675 52.6849 121.173 61.0441 121.173Z" stroke="white" stroke-miterlimit="10"/>
<path d="M59.3712 121.479C67.7303 121.479 74.5068 114.98 74.5068 106.963C74.5068 98.9466 67.7303 92.4478 59.3712 92.4478C51.012 92.4478 44.2356 98.9466 44.2356 106.963C44.2356 114.98 51.012 121.479 59.3712 121.479Z" stroke="white" stroke-miterlimit="10"/>
<path d="M57.8576 120.791C66.2168 120.791 72.9932 114.292 72.9932 106.276C72.9932 98.259 66.2168 91.7602 57.8576 91.7602C49.4985 91.7602 42.722 98.259 42.722 106.276C42.722 114.292 49.4985 120.791 57.8576 120.791Z" stroke="white" stroke-miterlimit="10"/>
<path d="M56.9016 119.492C65.2608 119.492 72.0372 112.994 72.0372 104.977C72.0372 96.9603 65.2608 90.4614 56.9016 90.4614C48.5425 90.4614 41.7661 96.9603 41.7661 104.977C41.7661 112.994 48.5425 119.492 56.9016 119.492Z" stroke="white" stroke-miterlimit="10"/>
<path d="M56.822 117.812C65.1812 117.812 71.9576 111.313 71.9576 103.296C71.9576 95.2795 65.1812 88.7807 56.822 88.7807C48.4629 88.7807 41.6864 95.2795 41.6864 103.296C41.6864 111.313 48.4629 117.812 56.822 117.812Z" stroke="white" stroke-miterlimit="10"/>
<path d="M56.822 116.207C65.1812 116.207 71.9576 109.709 71.9576 101.692C71.9576 93.6752 65.1812 87.1764 56.822 87.1764C48.4629 87.1764 41.6864 93.6752 41.6864 101.692C41.6864 109.709 48.4629 116.207 56.822 116.207Z" stroke="white" stroke-miterlimit="10"/>
<path d="M56.822 114.603C65.1812 114.603 71.9576 108.104 71.9576 100.087C71.9576 92.0708 65.1812 85.572 56.822 85.572C48.4629 85.572 41.6864 92.0708 41.6864 100.087C41.6864 108.104 48.4629 114.603 56.822 114.603Z" stroke="white" stroke-miterlimit="10"/>
<path d="M56.822 112.922C65.1812 112.922 71.9576 106.424 71.9576 98.4068C71.9576 90.3901 65.1812 83.8913 56.822 83.8913C48.4629 83.8913 41.6864 90.3901 41.6864 98.4068C41.6864 106.424 48.4629 112.922 56.822 112.922Z" stroke="white" stroke-miterlimit="10"/>
<path d="M56.822 111.318C65.1812 111.318 71.9576 104.819 71.9576 96.8025C71.9576 88.7857 65.1812 82.2869 56.822 82.2869C48.4629 82.2869 41.6864 88.7857 41.6864 96.8025C41.6864 104.819 48.4629 111.318 56.822 111.318Z" stroke="white" stroke-miterlimit="10"/>
<path d="M56.822 109.637C65.1812 109.637 71.9576 103.138 71.9576 95.1217C71.9576 87.105 65.1812 80.6062 56.822 80.6062C48.4629 80.6062 41.6864 87.105 41.6864 95.1217C41.6864 103.138 48.4629 109.637 56.822 109.637Z" stroke="white" stroke-miterlimit="10"/>
<path d="M56.822 108.033C65.1812 108.033 71.9576 101.534 71.9576 93.5174C71.9576 85.5007 65.1812 79.0018 56.822 79.0018C48.4629 79.0018 41.6864 85.5007 41.6864 93.5174C41.6864 101.534 48.4629 108.033 56.822 108.033Z" stroke="white" stroke-miterlimit="10"/>
<path d="M56.822 106.352C65.1812 106.352 71.9576 99.8533 71.9576 91.8366C71.9576 83.8199 65.1812 77.3211 56.822 77.3211C48.4629 77.3211 41.6864 83.8199 41.6864 91.8366C41.6864 99.8533 48.4629 106.352 56.822 106.352Z" stroke="white" stroke-miterlimit="10"/>
<path d="M56.822 104.748C65.1812 104.748 71.9576 98.249 71.9576 90.2323C71.9576 82.2156 65.1812 75.7168 56.822 75.7168C48.4629 75.7168 41.6864 82.2156 41.6864 90.2323C41.6864 98.249 48.4629 104.748 56.822 104.748Z" stroke="white" stroke-miterlimit="10"/>
<path d="M56.822 103.067C65.1812 103.067 71.9576 96.5682 71.9576 88.5515C71.9576 80.5348 65.1812 74.036 56.822 74.036C48.4629 74.036 41.6864 80.5348 41.6864 88.5515C41.6864 96.5682 48.4629 103.067 56.822 103.067Z" stroke="white" stroke-miterlimit="10"/>
<path d="M56.822 101.463C65.1812 101.463 71.9576 94.9639 71.9576 86.9472C71.9576 78.9305 65.1812 72.4317 56.822 72.4317C48.4629 72.4317 41.6864 78.9305 41.6864 86.9472C41.6864 94.9639 48.4629 101.463 56.822 101.463Z" stroke="white" stroke-miterlimit="10"/>
<path d="M56.822 99.8584C65.1812 99.8584 71.9576 93.3596 71.9576 85.3429C71.9576 77.3262 65.1812 70.8273 56.822 70.8273C48.4629 70.8273 41.6864 77.3262 41.6864 85.3429C41.6864 93.3596 48.4629 99.8584 56.822 99.8584Z" stroke="white" stroke-miterlimit="10"/>
<path d="M56.822 98.1776C65.1812 98.1776 71.9576 91.6788 71.9576 83.6621C71.9576 75.6454 65.1812 69.1465 56.822 69.1465C48.4629 69.1465 41.6864 75.6454 41.6864 83.6621C41.6864 91.6788 48.4629 98.1776 56.822 98.1776Z" stroke="white" stroke-miterlimit="10"/>
<path d="M56.822 96.5733C65.1812 96.5733 71.9576 90.0745 71.9576 82.0578C71.9576 74.0411 65.1812 67.5422 56.822 67.5422C48.4629 67.5422 41.6864 74.0411 41.6864 82.0578C41.6864 90.0745 48.4629 96.5733 56.822 96.5733Z" stroke="white" stroke-miterlimit="10"/>
<path d="M56.822 94.8925C65.1812 94.8925 71.9576 88.3937 71.9576 80.377C71.9576 72.3603 65.1812 65.8615 56.822 65.8615C48.4629 65.8615 41.6864 72.3603 41.6864 80.377C41.6864 88.3937 48.4629 94.8925 56.822 94.8925Z" stroke="white" stroke-miterlimit="10"/>
<path d="M56.822 93.2881C65.1812 93.2881 71.9576 86.7893 71.9576 78.7726C71.9576 70.7559 65.1812 64.2571 56.822 64.2571C48.4629 64.2571 41.6864 70.7559 41.6864 78.7726C41.6864 86.7893 48.4629 93.2881 56.822 93.2881Z" stroke="white" stroke-miterlimit="10"/>
<path d="M56.822 91.6074C65.1812 91.6074 71.9576 85.1086 71.9576 77.0919C71.9576 69.0752 65.1812 62.5764 56.822 62.5764C48.4629 62.5764 41.6864 69.0752 41.6864 77.0919C41.6864 85.1086 48.4629 91.6074 56.822 91.6074Z" stroke="white" stroke-miterlimit="10"/>
<path d="M56.822 90.0031C65.1812 90.0031 71.9576 83.5043 71.9576 75.4876C71.9576 67.4709 65.1812 60.972 56.822 60.972C48.4629 60.972 41.6864 67.4709 41.6864 75.4876C41.6864 83.5043 48.4629 90.0031 56.822 90.0031Z" stroke="white" stroke-miterlimit="10"/>
<path d="M56.822 88.3223C65.1812 88.3223 71.9576 81.8235 71.9576 73.8068C71.9576 65.7901 65.1812 59.2913 56.822 59.2913C48.4629 59.2913 41.6864 65.7901 41.6864 73.8068C41.6864 81.8235 48.4629 88.3223 56.822 88.3223Z" stroke="white" stroke-miterlimit="10"/>
<path d="M56.822 86.7179C65.1812 86.7179 71.9576 80.2191 71.9576 72.2024C71.9576 64.1857 65.1812 57.6869 56.822 57.6869C48.4629 57.6869 41.6864 64.1857 41.6864 72.2024C41.6864 80.2191 48.4629 86.7179 56.822 86.7179Z" stroke="white" stroke-miterlimit="10"/>
<path d="M56.822 85.1136C65.1812 85.1136 71.9576 78.6148 71.9576 70.5981C71.9576 62.5814 65.1812 56.0826 56.822 56.0826C48.4629 56.0826 41.6864 62.5814 41.6864 70.5981C41.6864 78.6148 48.4629 85.1136 56.822 85.1136Z" stroke="white" stroke-miterlimit="10"/>
<path d="M56.822 83.4329C65.1812 83.4329 71.9576 76.9341 71.9576 68.9174C71.9576 60.9007 65.1812 54.4019 56.822 54.4019C48.4629 54.4019 41.6864 60.9007 41.6864 68.9174C41.6864 76.9341 48.4629 83.4329 56.822 83.4329Z" stroke="white" stroke-miterlimit="10"/>
</svg>
