<svg width="124" height="123" viewBox="0 0 124 123" fill="none" xmlns="http://www.w3.org/2000/svg">
<path d="M24.8577 121.771C33.2168 121.771 39.9933 115.272 39.9933 107.255C39.9933 99.2386 33.2168 92.7398 24.8577 92.7398C16.4985 92.7398 9.72208 99.2386 9.72208 107.255C9.72208 115.272 16.4985 121.771 24.8577 121.771Z" stroke="white" stroke-miterlimit="10"/>
<path d="M27.8848 121.771C36.244 121.771 43.0204 115.272 43.0204 107.255C43.0204 99.2386 36.244 92.7398 27.8848 92.7398C19.5257 92.7398 12.7492 99.2386 12.7492 107.255C12.7492 115.272 19.5257 121.771 27.8848 121.771Z" stroke="white" stroke-miterlimit="10"/>
<path d="M30.9915 121.771C39.3507 121.771 46.1271 115.272 46.1271 107.255C46.1271 99.2386 39.3507 92.7398 30.9915 92.7398C22.6324 92.7398 15.8559 99.2386 15.8559 107.255C15.8559 115.272 22.6324 121.771 30.9915 121.771Z" stroke="white" stroke-miterlimit="10"/>
<path d="M34.0187 121.771C42.3778 121.771 49.1543 115.272 49.1543 107.255C49.1543 99.2386 42.3778 92.7398 34.0187 92.7398C25.6595 92.7398 18.8831 99.2386 18.8831 107.255C18.8831 115.272 25.6595 121.771 34.0187 121.771Z" stroke="white" stroke-miterlimit="10"/>
<path d="M37.1254 121.771C45.4846 121.771 52.261 115.272 52.261 107.255C52.261 99.2386 45.4846 92.7398 37.1254 92.7398C28.7662 92.7398 21.9898 99.2386 21.9898 107.255C21.9898 115.272 28.7662 121.771 37.1254 121.771Z" stroke="white" stroke-miterlimit="10"/>
<path d="M40.2323 121.771C48.5914 121.771 55.3679 115.272 55.3679 107.255C55.3679 99.2386 48.5914 92.7398 40.2323 92.7398C31.8731 92.7398 25.0967 99.2386 25.0967 107.255C25.0967 115.272 31.8731 121.771 40.2323 121.771Z" stroke="white" stroke-miterlimit="10"/>
<path d="M43.2593 121.771C51.6184 121.771 58.3948 115.272 58.3948 107.255C58.3948 99.2386 51.6184 92.7398 43.2593 92.7398C34.9001 92.7398 28.1237 99.2386 28.1237 107.255C28.1237 115.272 34.9001 121.771 43.2593 121.771Z" stroke="white" stroke-miterlimit="10"/>
<path d="M46.3661 121.771C54.7253 121.771 61.5017 115.272 61.5017 107.255C61.5017 99.2386 54.7253 92.7398 46.3661 92.7398C38.007 92.7398 31.2305 99.2386 31.2305 107.255C31.2305 115.272 38.007 121.771 46.3661 121.771Z" stroke="white" stroke-miterlimit="10"/>
<path d="M49.3933 121.771C57.7525 121.771 64.5289 115.272 64.5289 107.255C64.5289 99.2386 57.7525 92.7398 49.3933 92.7398C41.0342 92.7398 34.2577 99.2386 34.2577 107.255C34.2577 115.272 41.0342 121.771 49.3933 121.771Z" stroke="white" stroke-miterlimit="10"/>
<path d="M52.5 121.771C60.8592 121.771 67.6356 115.272 67.6356 107.255C67.6356 99.2386 60.8592 92.7398 52.5 92.7398C44.1408 92.7398 37.3644 99.2386 37.3644 107.255C37.3644 115.272 44.1408 121.771 52.5 121.771Z" stroke="white" stroke-miterlimit="10"/>
<path d="M55.5272 121.771C63.8863 121.771 70.6627 115.272 70.6627 107.255C70.6627 99.2386 63.8863 92.7398 55.5272 92.7398C47.168 92.7398 40.3916 99.2386 40.3916 107.255C40.3916 115.272 47.168 121.771 55.5272 121.771Z" stroke="white" stroke-miterlimit="10"/>
<path d="M58.6339 121.771C66.993 121.771 73.7694 115.272 73.7694 107.255C73.7694 99.2386 66.993 92.7398 58.6339 92.7398C50.2747 92.7398 43.4983 99.2386 43.4983 107.255C43.4983 115.272 50.2747 121.771 58.6339 121.771Z" stroke="white" stroke-miterlimit="10"/>
<path d="M61.8203 121.771C70.1794 121.771 76.9559 115.272 76.9559 107.255C76.9559 99.2386 70.1794 92.7398 61.8203 92.7398C53.4611 92.7398 46.6847 99.2386 46.6847 107.255C46.6847 115.272 53.4611 121.771 61.8203 121.771Z" stroke="white" stroke-miterlimit="10"/>
<path d="M65.0067 121.618C73.3659 121.618 80.1423 115.119 80.1423 107.103C80.1423 99.0858 73.3659 92.587 65.0067 92.587C56.6476 92.587 49.8712 99.0858 49.8712 107.103C49.8712 115.119 56.6476 121.618 65.0067 121.618Z" stroke="white" stroke-miterlimit="10"/>
<path d="M68.1136 121.236C76.4728 121.236 83.2492 114.737 83.2492 106.72C83.2492 98.7038 76.4728 92.205 68.1136 92.205C59.7545 92.205 52.978 98.7038 52.978 106.72C52.978 114.737 59.7545 121.236 68.1136 121.236Z" stroke="white" stroke-miterlimit="10"/>
<path d="M71.2204 120.701C79.5795 120.701 86.356 114.202 86.356 106.186C86.356 98.169 79.5795 91.6702 71.2204 91.6702C62.8612 91.6702 56.0848 98.169 56.0848 106.186C56.0848 114.202 62.8612 120.701 71.2204 120.701Z" stroke="white" stroke-miterlimit="10"/>
<path d="M74.1678 120.014C82.5269 120.014 89.3034 113.515 89.3034 105.498C89.3034 97.4814 82.5269 90.9826 74.1678 90.9826C65.8086 90.9826 59.0322 97.4814 59.0322 105.498C59.0322 113.515 65.8086 120.014 74.1678 120.014Z" stroke="white" stroke-miterlimit="10"/>
<path d="M77.1152 119.097C85.4744 119.097 92.2508 112.598 92.2508 104.581C92.2508 96.5647 85.4744 90.0659 77.1152 90.0659C68.7561 90.0659 61.9796 96.5647 61.9796 104.581C61.9796 112.598 68.7561 119.097 77.1152 119.097Z" stroke="white" stroke-miterlimit="10"/>
<path d="M79.9831 118.027C88.3422 118.027 95.1187 111.529 95.1187 103.512C95.1187 95.4951 88.3422 88.9963 79.9831 88.9963C71.6239 88.9963 64.8475 95.4951 64.8475 103.512C64.8475 111.529 71.6239 118.027 79.9831 118.027Z" stroke="white" stroke-miterlimit="10"/>
<path d="M82.6915 116.805C91.0507 116.805 97.8271 110.306 97.8271 102.289C97.8271 94.2727 91.0507 87.7739 82.6915 87.7739C74.3323 87.7739 67.5559 94.2727 67.5559 102.289C67.5559 110.306 74.3323 116.805 82.6915 116.805Z" stroke="white" stroke-miterlimit="10"/>
<path d="M85.3203 115.43C93.6794 115.43 100.456 108.931 100.456 100.914C100.456 92.8976 93.6794 86.3988 85.3203 86.3988C76.9611 86.3988 70.1847 92.8976 70.1847 100.914C70.1847 108.931 76.9611 115.43 85.3203 115.43Z" stroke="white" stroke-miterlimit="10"/>
<path d="M87.8694 113.902C96.2286 113.902 103.005 107.403 103.005 99.3863C103.005 91.3696 96.2286 84.8708 87.8694 84.8708C79.5103 84.8708 72.7338 91.3696 72.7338 99.3863C72.7338 107.403 79.5103 113.902 87.8694 113.902Z" stroke="white" stroke-miterlimit="10"/>
<path d="M90.339 112.221C98.6981 112.221 105.475 105.722 105.475 97.7056C105.475 89.6889 98.6981 83.1901 90.339 83.1901C81.9798 83.1901 75.2034 89.6889 75.2034 97.7056C75.2034 105.722 81.9798 112.221 90.339 112.221Z" stroke="white" stroke-miterlimit="10"/>
<path d="M92.5694 110.311C100.929 110.311 107.705 103.812 107.705 95.7957C107.705 87.779 100.929 81.2802 92.5694 81.2802C84.2102 81.2802 77.4338 87.779 77.4338 95.7957C77.4338 103.812 84.2102 110.311 92.5694 110.311Z" stroke="white" stroke-miterlimit="10"/>
<path d="M94.8001 108.325C103.159 108.325 109.936 101.826 109.936 93.8093C109.936 85.7926 103.159 79.2938 94.8001 79.2938C86.4409 79.2938 79.6645 85.7926 79.6645 93.8093C79.6645 101.826 86.4409 108.325 94.8001 108.325Z" stroke="white" stroke-miterlimit="10"/>
<path d="M96.7916 106.186C105.151 106.186 111.927 99.6869 111.927 91.6702C111.927 83.6535 105.151 77.1547 96.7916 77.1547C88.4324 77.1547 81.656 83.6535 81.656 91.6702C81.656 99.6869 88.4324 106.186 96.7916 106.186Z" stroke="white" stroke-miterlimit="10"/>
<path d="M98.7034 103.894C107.063 103.894 113.839 97.3949 113.839 89.3782C113.839 81.3615 107.063 74.8627 98.7034 74.8627C90.3442 74.8627 83.5678 81.3615 83.5678 89.3782C83.5678 97.3949 90.3442 103.894 98.7034 103.894Z" stroke="white" stroke-miterlimit="10"/>
<path d="M100.376 101.526C108.735 101.526 115.512 95.0267 115.512 87.01C115.512 78.9933 108.735 72.4944 100.376 72.4944C92.0172 72.4944 85.2407 78.9933 85.2407 87.01C85.2407 95.0267 92.0172 101.526 100.376 101.526Z" stroke="white" stroke-miterlimit="10"/>
<path d="M101.89 99.0044C110.249 99.0044 117.025 92.5056 117.025 84.4889C117.025 76.4722 110.249 69.9733 101.89 69.9733C93.5307 69.9733 86.7543 76.4722 86.7543 84.4889C86.7543 92.5056 93.5307 99.0044 101.89 99.0044Z" stroke="white" stroke-miterlimit="10"/>
<path d="M103.324 96.4068C111.683 96.4068 118.459 89.908 118.459 81.8913C118.459 73.8746 111.683 67.3758 103.324 67.3758C94.9644 67.3758 88.188 73.8746 88.188 81.8913C88.188 89.908 94.9644 96.4068 103.324 96.4068Z" stroke="white" stroke-miterlimit="10"/>
<path d="M104.518 93.7329C112.878 93.7329 119.654 87.2341 119.654 79.2174C119.654 71.2007 112.878 64.7018 104.518 64.7018C96.1593 64.7018 89.3829 71.2007 89.3829 79.2174C89.3829 87.2341 96.1593 93.7329 104.518 93.7329Z" stroke="white" stroke-miterlimit="10"/>
<path d="M105.475 90.9826C113.834 90.9826 120.61 84.4838 120.61 76.4671C120.61 68.4504 113.834 61.9515 105.475 61.9515C97.1154 61.9515 90.339 68.4504 90.339 76.4671C90.339 84.4838 97.1154 90.9826 105.475 90.9826Z" stroke="white" stroke-miterlimit="10"/>
<path d="M106.351 88.1559C114.71 88.1559 121.487 81.6571 121.487 73.6404C121.487 65.6237 114.71 59.1249 106.351 59.1249C97.9918 59.1249 91.2153 65.6237 91.2153 73.6404C91.2153 81.6571 97.9918 88.1559 106.351 88.1559Z" stroke="white" stroke-miterlimit="10"/>
<path d="M106.988 85.2528C115.347 85.2528 122.124 78.754 122.124 70.7373C122.124 62.7206 115.347 56.2217 106.988 56.2217C98.6289 56.2217 91.8525 62.7206 91.8525 70.7373C91.8525 78.754 98.6289 85.2528 106.988 85.2528Z" stroke="white" stroke-miterlimit="10"/>
<path d="M107.466 82.2733C115.825 82.2733 122.602 75.7745 122.602 67.7578C122.602 59.7411 115.825 53.2422 107.466 53.2422C99.1069 53.2422 92.3305 59.7411 92.3305 67.7578C92.3305 75.7745 99.1069 82.2733 107.466 82.2733Z" stroke="white" stroke-miterlimit="10"/>
<path d="M107.785 79.2938C116.144 79.2938 122.92 72.7949 122.92 64.7782C122.92 56.7615 116.144 50.2627 107.785 50.2627C99.4255 50.2627 92.6491 56.7615 92.6491 64.7782C92.6491 72.7949 99.4255 79.2938 107.785 79.2938Z" stroke="white" stroke-miterlimit="10"/>
<path d="M107.864 76.1615C116.224 76.1615 123 69.6627 123 61.646C123 53.6293 116.224 47.1304 107.864 47.1304C99.5053 47.1304 92.7288 53.6293 92.7288 61.646C92.7288 69.6627 99.5053 76.1615 107.864 76.1615Z" stroke="white" stroke-miterlimit="10"/>
<path d="M107.785 72.9528C116.144 72.9528 122.92 66.454 122.92 58.4373C122.92 50.4206 116.144 43.9218 107.785 43.9218C99.4255 43.9218 92.6491 50.4206 92.6491 58.4373C92.6491 66.454 99.4255 72.9528 107.785 72.9528Z" stroke="white" stroke-miterlimit="10"/>
<path d="M107.546 69.8205C115.905 69.8205 122.681 63.3217 122.681 55.305C122.681 47.2882 115.905 40.7894 107.546 40.7894C99.1867 40.7894 92.4103 47.2882 92.4103 55.305C92.4103 63.3217 99.1867 69.8205 107.546 69.8205Z" stroke="white" stroke-miterlimit="10"/>
<path d="M107.068 66.7646C115.427 66.7646 122.203 60.2658 122.203 52.2491C122.203 44.2324 115.427 37.7336 107.068 37.7336C98.7086 37.7336 91.9322 44.2324 91.9322 52.2491C91.9322 60.2658 98.7086 66.7646 107.068 66.7646Z" stroke="white" stroke-miterlimit="10"/>
<path d="M106.351 63.7851C114.71 63.7851 121.487 57.2863 121.487 49.2696C121.487 41.2529 114.71 34.754 106.351 34.754C97.9918 34.754 91.2153 41.2529 91.2153 49.2696C91.2153 57.2863 97.9918 63.7851 106.351 63.7851Z" stroke="white" stroke-miterlimit="10"/>
<path d="M105.554 60.882C113.913 60.882 120.69 54.3832 120.69 46.3665C120.69 38.3498 113.913 31.851 105.554 31.851C97.1951 31.851 90.4187 38.3498 90.4187 46.3665C90.4187 54.3832 97.1951 60.882 105.554 60.882Z" stroke="white" stroke-miterlimit="10"/>
<path d="M104.518 58.1317C112.878 58.1317 119.654 51.6329 119.654 43.6162C119.654 35.5995 112.878 29.1006 104.518 29.1006C96.1593 29.1006 89.3829 35.5995 89.3829 43.6162C89.3829 51.6329 96.1593 58.1317 104.518 58.1317Z" stroke="white" stroke-miterlimit="10"/>
<path d="M103.324 55.4578C111.683 55.4578 118.459 48.959 118.459 40.9423C118.459 32.9256 111.683 26.4268 103.324 26.4268C94.9644 26.4268 88.188 32.9256 88.188 40.9423C88.188 48.959 94.9644 55.4578 103.324 55.4578Z" stroke="white" stroke-miterlimit="10"/>
<path d="M101.97 52.8603C110.329 52.8603 117.105 46.3615 117.105 38.3448C117.105 30.328 110.329 23.8292 101.97 23.8292C93.6104 23.8292 86.8339 30.328 86.8339 38.3448C86.8339 46.3615 93.6104 52.8603 101.97 52.8603Z" stroke="white" stroke-miterlimit="10"/>
<path d="M100.535 50.4155C108.895 50.4155 115.671 43.9167 115.671 35.9C115.671 27.8833 108.895 21.3845 100.535 21.3845C92.1763 21.3845 85.3998 27.8833 85.3998 35.9C85.3998 43.9167 92.1763 50.4155 100.535 50.4155Z" stroke="white" stroke-miterlimit="10"/>
<path d="M98.8626 48.0472C107.222 48.0472 113.998 41.5484 113.998 33.5317C113.998 25.515 107.222 19.0162 98.8626 19.0162C90.5035 19.0162 83.7271 25.515 83.7271 33.5317C83.7271 41.5484 90.5035 48.0472 98.8626 48.0472Z" stroke="white" stroke-miterlimit="10"/>
<path d="M97.0304 45.8317C105.39 45.8317 112.166 39.3328 112.166 31.3161C112.166 23.2994 105.39 16.8006 97.0304 16.8006C88.6713 16.8006 81.8948 23.2994 81.8948 31.3161C81.8948 39.3328 88.6713 45.8317 97.0304 45.8317Z" stroke="white" stroke-miterlimit="10"/>
<path d="M95.1186 43.769C103.478 43.769 110.254 37.2701 110.254 29.2534C110.254 21.2367 103.478 14.7379 95.1186 14.7379C86.7595 14.7379 79.983 21.2367 79.983 29.2534C79.983 37.2701 86.7595 43.769 95.1186 43.769Z" stroke="white" stroke-miterlimit="10"/>
<path d="M92.9676 41.7826C101.327 41.7826 108.103 35.2838 108.103 27.2671C108.103 19.2503 101.327 12.7515 92.9676 12.7515C84.6085 12.7515 77.832 19.2503 77.832 27.2671C77.832 35.2838 84.6085 41.7826 92.9676 41.7826Z" stroke="white" stroke-miterlimit="10"/>
<path d="M90.8171 39.9491C99.1762 39.9491 105.953 33.4503 105.953 25.4336C105.953 17.4169 99.1762 10.918 90.8171 10.918C82.4579 10.918 75.6815 17.4169 75.6815 25.4336C75.6815 33.4503 82.4579 39.9491 90.8171 39.9491Z" stroke="white" stroke-miterlimit="10"/>
<path d="M88.4272 38.2684C96.7864 38.2684 103.563 31.7695 103.563 23.7528C103.563 15.7361 96.7864 9.2373 88.4272 9.2373C80.0681 9.2373 73.2916 15.7361 73.2916 23.7528C73.2916 31.7695 80.0681 38.2684 88.4272 38.2684Z" stroke="white" stroke-miterlimit="10"/>
<path d="M85.9576 36.7404C94.3168 36.7404 101.093 30.2416 101.093 22.2249C101.093 14.2082 94.3168 7.70935 85.9576 7.70935C77.5985 7.70935 70.822 14.2082 70.822 22.2249C70.822 30.2416 77.5985 36.7404 85.9576 36.7404Z" stroke="white" stroke-miterlimit="10"/>
<path d="M83.3288 35.3652C91.6879 35.3652 98.4644 28.8664 98.4644 20.8497C98.4644 12.833 91.6879 6.33417 83.3288 6.33417C74.9696 6.33417 68.1932 12.833 68.1932 20.8497C68.1932 28.8664 74.9696 35.3652 83.3288 35.3652Z" stroke="white" stroke-miterlimit="10"/>
<path d="M80.6202 34.1429C88.9793 34.1429 95.7557 27.644 95.7557 19.6273C95.7557 11.6106 88.9793 5.11182 80.6202 5.11182C72.261 5.11182 65.4846 11.6106 65.4846 19.6273C65.4846 27.644 72.261 34.1429 80.6202 34.1429Z" stroke="white" stroke-miterlimit="10"/>
<path d="M77.8321 33.0733C86.1912 33.0733 92.9677 26.5745 92.9677 18.5578C92.9677 10.5411 86.1912 4.04224 77.8321 4.04224C69.4729 4.04224 62.6965 10.5411 62.6965 18.5578C62.6965 26.5745 69.4729 33.0733 77.8321 33.0733Z" stroke="white" stroke-miterlimit="10"/>
<path d="M74.9644 32.1565C83.3235 32.1565 90.1 25.6577 90.1 17.641C90.1 9.62431 83.3235 3.12549 74.9644 3.12549C66.6052 3.12549 59.8288 9.62431 59.8288 17.641C59.8288 25.6577 66.6052 32.1565 74.9644 32.1565Z" stroke="white" stroke-miterlimit="10"/>
<path d="M71.9373 31.469C80.2964 31.469 87.0729 24.9702 87.0729 16.9535C87.0729 8.93675 80.2964 2.43793 71.9373 2.43793C63.5781 2.43793 56.8016 8.93675 56.8016 16.9535C56.8016 24.9702 63.5781 31.469 71.9373 31.469Z" stroke="white" stroke-miterlimit="10"/>
<path d="M68.8305 30.9341C77.1897 30.9341 83.9661 24.4353 83.9661 16.4186C83.9661 8.4019 77.1897 1.90308 68.8305 1.90308C60.4714 1.90308 53.6949 8.4019 53.6949 16.4186C53.6949 24.4353 60.4714 30.9341 68.8305 30.9341Z" stroke="white" stroke-miterlimit="10"/>
<path d="M65.644 30.5522C74.0032 30.5522 80.7796 24.0534 80.7796 16.0366C80.7796 8.01994 74.0032 1.52112 65.644 1.52112C57.2849 1.52112 50.5084 8.01994 50.5084 16.0366C50.5084 24.0534 57.2849 30.5522 65.644 30.5522Z" stroke="white" stroke-miterlimit="10"/>
<path d="M62.378 30.3993C70.7371 30.3993 77.5135 23.9005 77.5135 15.8838C77.5135 7.86711 70.7371 1.36829 62.378 1.36829C54.0188 1.36829 47.2423 7.86711 47.2423 15.8838C47.2423 23.9005 54.0188 30.3993 62.378 30.3993Z" stroke="white" stroke-miterlimit="10"/>
<path d="M59.1915 30.323C67.5506 30.323 74.3271 23.8242 74.3271 15.8075C74.3271 7.79075 67.5506 1.29193 59.1915 1.29193C50.8323 1.29193 44.0559 7.79075 44.0559 15.8075C44.0559 23.8242 50.8323 30.323 59.1915 30.323Z" stroke="white" stroke-miterlimit="10"/>
<path d="M56.0848 30.323C64.4439 30.323 71.2203 23.8242 71.2203 15.8075C71.2203 7.79075 64.4439 1.29193 56.0848 1.29193C47.7256 1.29193 40.9492 7.79075 40.9492 15.8075C40.9492 23.8242 47.7256 30.323 56.0848 30.323Z" stroke="white" stroke-miterlimit="10"/>
<path d="M53.0576 30.323C61.4167 30.323 68.1932 23.8242 68.1932 15.8075C68.1932 7.79075 61.4167 1.29193 53.0576 1.29193C44.6984 1.29193 37.922 7.79075 37.922 15.8075C37.922 23.8242 44.6984 30.323 53.0576 30.323Z" stroke="white" stroke-miterlimit="10"/>
<path d="M49.9509 30.323C58.31 30.323 65.0864 23.8242 65.0864 15.8075C65.0864 7.79075 58.31 1.29193 49.9509 1.29193C41.5917 1.29193 34.8153 7.79075 34.8153 15.8075C34.8153 23.8242 41.5917 30.323 49.9509 30.323Z" stroke="white" stroke-miterlimit="10"/>
<path d="M46.844 30.323C55.2032 30.323 61.9796 23.8242 61.9796 15.8075C61.9796 7.79075 55.2032 1.29193 46.844 1.29193C38.4848 1.29193 31.7084 7.79075 31.7084 15.8075C31.7084 23.8242 38.4848 30.323 46.844 30.323Z" stroke="white" stroke-miterlimit="10"/>
<path d="M43.817 30.323C52.1762 30.323 58.9526 23.8242 58.9526 15.8075C58.9526 7.79075 52.1762 1.29193 43.817 1.29193C35.4579 1.29193 28.6814 7.79075 28.6814 15.8075C28.6814 23.8242 35.4579 30.323 43.817 30.323Z" stroke="white" stroke-miterlimit="10"/>
<path d="M40.7101 30.323C49.0693 30.323 55.8457 23.8242 55.8457 15.8075C55.8457 7.79075 49.0693 1.29193 40.7101 1.29193C32.351 1.29193 25.5746 7.79075 25.5746 15.8075C25.5746 23.8242 32.351 30.323 40.7101 30.323Z" stroke="white" stroke-miterlimit="10"/>
<path d="M37.683 30.323C46.0421 30.323 52.8186 23.8242 52.8186 15.8075C52.8186 7.79075 46.0421 1.29193 37.683 1.29193C29.3238 1.29193 22.5474 7.79075 22.5474 15.8075C22.5474 23.8242 29.3238 30.323 37.683 30.323Z" stroke="white" stroke-miterlimit="10"/>
<path d="M34.5763 30.323C42.9355 30.323 49.7119 23.8242 49.7119 15.8075C49.7119 7.79075 42.9355 1.29193 34.5763 1.29193C26.2171 1.29193 19.4407 7.79075 19.4407 15.8075C19.4407 23.8242 26.2171 30.323 34.5763 30.323Z" stroke="white" stroke-miterlimit="10"/>
<path d="M31.5491 30.323C39.9083 30.323 46.6847 23.8242 46.6847 15.8075C46.6847 7.79075 39.9083 1.29193 31.5491 1.29193C23.1899 1.29193 16.4135 7.79075 16.4135 15.8075C16.4135 23.8242 23.1899 30.323 31.5491 30.323Z" stroke="white" stroke-miterlimit="10"/>
<path d="M28.3627 30.323C36.7218 30.323 43.4983 23.8242 43.4983 15.8075C43.4983 7.79075 36.7218 1.29193 28.3627 1.29193C20.0035 1.29193 13.2271 7.79075 13.2271 15.8075C13.2271 23.8242 20.0035 30.323 28.3627 30.323Z" stroke="white" stroke-miterlimit="10"/>
<path d="M25.0169 30.7049C33.3761 30.7049 40.1525 24.2061 40.1525 16.1894C40.1525 8.17271 33.3761 1.67389 25.0169 1.67389C16.6578 1.67389 9.88135 8.17271 9.88135 16.1894C9.88135 24.2061 16.6578 30.7049 25.0169 30.7049Z" stroke="white" stroke-miterlimit="10"/>
<path d="M22.1491 31.6218C30.5082 31.6218 37.2847 25.1229 37.2847 17.1062C37.2847 9.08952 30.5082 2.5907 22.1491 2.5907C13.7899 2.5907 7.01349 9.08952 7.01349 17.1062C7.01349 25.1229 13.7899 31.6218 22.1491 31.6218Z" stroke="white" stroke-miterlimit="10"/>
<path d="M19.839 33.1497C28.1982 33.1497 34.9746 26.6509 34.9746 18.6342C34.9746 10.6175 28.1982 4.11865 19.839 4.11865C11.4798 4.11865 4.7034 10.6175 4.7034 18.6342C4.7034 26.6509 11.4798 33.1497 19.839 33.1497Z" stroke="white" stroke-miterlimit="10"/>
<path d="M18.0865 35.136C26.4456 35.136 33.2221 28.6372 33.2221 20.6205C33.2221 12.6038 26.4456 6.10498 18.0865 6.10498C9.72733 6.10498 2.9509 12.6038 2.9509 20.6205C2.9509 28.6372 9.72733 35.136 18.0865 35.136Z" stroke="white" stroke-miterlimit="10"/>
<path d="M16.8916 37.7336C25.2507 37.7336 32.0272 31.2347 32.0272 23.218C32.0272 15.2013 25.2507 8.70251 16.8916 8.70251C8.53242 8.70251 1.75598 15.2013 1.75598 23.218C1.75598 31.2347 8.53242 37.7336 16.8916 37.7336Z" stroke="white" stroke-miterlimit="10"/>
<path d="M16.334 40.7894C24.6931 40.7894 31.4696 34.2906 31.4696 26.2739C31.4696 18.2572 24.6931 11.7584 16.334 11.7584C7.9748 11.7584 1.19836 18.2572 1.19836 26.2739C1.19836 34.2906 7.9748 40.7894 16.334 40.7894Z" stroke="white" stroke-miterlimit="10"/>
<path d="M16.2542 43.9217C24.6134 43.9217 31.3898 37.4229 31.3898 29.4062C31.3898 21.3895 24.6134 14.8907 16.2542 14.8907C7.89509 14.8907 1.11865 21.3895 1.11865 29.4062C1.11865 37.4229 7.89509 43.9217 16.2542 43.9217Z" stroke="white" stroke-miterlimit="10"/>
<path d="M16.2542 46.9012C24.6134 46.9012 31.3898 40.4024 31.3898 32.3857C31.3898 24.369 24.6134 17.8702 16.2542 17.8702C7.89509 17.8702 1.11865 24.369 1.11865 32.3857C1.11865 40.4024 7.89509 46.9012 16.2542 46.9012Z" stroke="white" stroke-miterlimit="10"/>
<path d="M16.2542 49.8043C24.6134 49.8043 31.3898 43.3055 31.3898 35.2888C31.3898 27.2721 24.6134 20.7733 16.2542 20.7733C7.89509 20.7733 1.11865 27.2721 1.11865 35.2888C1.11865 43.3055 7.89509 49.8043 16.2542 49.8043Z" stroke="white" stroke-miterlimit="10"/>
<path d="M16.2542 52.7839C24.6134 52.7839 31.3898 46.285 31.3898 38.2683C31.3898 30.2516 24.6134 23.7528 16.2542 23.7528C7.89509 23.7528 1.11865 30.2516 1.11865 38.2683C1.11865 46.285 7.89509 52.7839 16.2542 52.7839Z" stroke="white" stroke-miterlimit="10"/>
<path d="M16.2542 55.6869C24.6134 55.6869 31.3898 49.1881 31.3898 41.1714C31.3898 33.1547 24.6134 26.6559 16.2542 26.6559C7.89509 26.6559 1.11865 33.1547 1.11865 41.1714C1.11865 49.1881 7.89509 55.6869 16.2542 55.6869Z" stroke="white" stroke-miterlimit="10"/>
<path d="M16.2542 58.6664C24.6134 58.6664 31.3898 52.1676 31.3898 44.1509C31.3898 36.1342 24.6134 29.6354 16.2542 29.6354C7.89509 29.6354 1.11865 36.1342 1.11865 44.1509C1.11865 52.1676 7.89509 58.6664 16.2542 58.6664Z" stroke="white" stroke-miterlimit="10"/>
<path d="M16.2542 61.646C24.6134 61.646 31.3898 55.1472 31.3898 47.1305C31.3898 39.1138 24.6134 32.6149 16.2542 32.6149C7.89509 32.6149 1.11865 39.1138 1.11865 47.1305C1.11865 55.1472 7.89509 61.646 16.2542 61.646Z" stroke="white" stroke-miterlimit="10"/>
<path d="M16.2542 64.5491C24.6134 64.5491 31.3898 58.0502 31.3898 50.0335C31.3898 42.0168 24.6134 35.518 16.2542 35.518C7.89509 35.518 1.11865 42.0168 1.11865 50.0335C1.11865 58.0502 7.89509 64.5491 16.2542 64.5491Z" stroke="white" stroke-miterlimit="10"/>
<path d="M16.2542 67.5285C24.6134 67.5285 31.3898 61.0297 31.3898 53.013C31.3898 44.9963 24.6134 38.4975 16.2542 38.4975C7.89509 38.4975 1.11865 44.9963 1.11865 53.013C1.11865 61.0297 7.89509 67.5285 16.2542 67.5285Z" stroke="white" stroke-miterlimit="10"/>
<path d="M16.2542 70.4317C24.6134 70.4317 31.3898 63.9329 31.3898 55.9162C31.3898 47.8995 24.6134 41.4006 16.2542 41.4006C7.89509 41.4006 1.11865 47.8995 1.11865 55.9162C1.11865 63.9329 7.89509 70.4317 16.2542 70.4317Z" stroke="white" stroke-miterlimit="10"/>
<path d="M16.2542 73.4112C24.6134 73.4112 31.3898 66.9124 31.3898 58.8957C31.3898 50.879 24.6134 44.3801 16.2542 44.3801C7.89509 44.3801 1.11865 50.879 1.11865 58.8957C1.11865 66.9124 7.89509 73.4112 16.2542 73.4112Z" stroke="white" stroke-miterlimit="10"/>
<path d="M16.2542 76.3143C24.6134 76.3143 31.3898 69.8154 31.3898 61.7987C31.3898 53.782 24.6134 47.2832 16.2542 47.2832C7.89509 47.2832 1.11865 53.782 1.11865 61.7987C1.11865 69.8154 7.89509 76.3143 16.2542 76.3143Z" stroke="white" stroke-miterlimit="10"/>
<path d="M16.2542 79.2938C24.6134 79.2938 31.3898 72.7949 31.3898 64.7782C31.3898 56.7615 24.6134 50.2627 16.2542 50.2627C7.89509 50.2627 1.11865 56.7615 1.11865 64.7782C1.11865 72.7949 7.89509 79.2938 16.2542 79.2938Z" stroke="white" stroke-miterlimit="10"/>
<path d="M16.2542 82.2733C24.6134 82.2733 31.3898 75.7745 31.3898 67.7578C31.3898 59.7411 24.6134 53.2422 16.2542 53.2422C7.89509 53.2422 1.11865 59.7411 1.11865 67.7578C1.11865 75.7745 7.89509 82.2733 16.2542 82.2733Z" stroke="white" stroke-miterlimit="10"/>
<path d="M16.2542 85.1764C24.6134 85.1764 31.3898 78.6776 31.3898 70.6609C31.3898 62.6442 24.6134 56.1454 16.2542 56.1454C7.89509 56.1454 1.11865 62.6442 1.11865 70.6609C1.11865 78.6776 7.89509 85.1764 16.2542 85.1764Z" stroke="white" stroke-miterlimit="10"/>
<path d="M16.2542 88.1559C24.6134 88.1559 31.3898 81.6571 31.3898 73.6404C31.3898 65.6237 24.6134 59.1249 16.2542 59.1249C7.89509 59.1249 1.11865 65.6237 1.11865 73.6404C1.11865 81.6571 7.89509 88.1559 16.2542 88.1559Z" stroke="white" stroke-miterlimit="10"/>
<path d="M16.2542 91.059C24.6134 91.059 31.3898 84.5602 31.3898 76.5435C31.3898 68.5268 24.6134 62.028 16.2542 62.028C7.89509 62.028 1.11865 68.5268 1.11865 76.5435C1.11865 84.5602 7.89509 91.059 16.2542 91.059Z" stroke="white" stroke-miterlimit="10"/>
<path d="M16.2542 94.0385C24.6134 94.0385 31.3898 87.5397 31.3898 79.523C31.3898 71.5063 24.6134 65.0074 16.2542 65.0074C7.89509 65.0074 1.11865 71.5063 1.11865 79.523C1.11865 87.5397 7.89509 94.0385 16.2542 94.0385Z" stroke="white" stroke-miterlimit="10"/>
<path d="M16.2542 96.9416C24.6134 96.9416 31.3898 90.4428 31.3898 82.4261C31.3898 74.4094 24.6134 67.9106 16.2542 67.9106C7.89509 67.9106 1.11865 74.4094 1.11865 82.4261C1.11865 90.4428 7.89509 96.9416 16.2542 96.9416Z" stroke="white" stroke-miterlimit="10"/>
<path d="M16.2542 99.9211C24.6134 99.9211 31.3898 93.4222 31.3898 85.4055C31.3898 77.3888 24.6134 70.89 16.2542 70.89C7.89509 70.89 1.11865 77.3888 1.11865 85.4055C1.11865 93.4222 7.89509 99.9211 16.2542 99.9211Z" stroke="white" stroke-miterlimit="10"/>
<path d="M16.2542 102.901C24.6134 102.901 31.3898 96.4018 31.3898 88.3851C31.3898 80.3684 24.6134 73.8696 16.2542 73.8696C7.89509 73.8696 1.11865 80.3684 1.11865 88.3851C1.11865 96.4018 7.89509 102.901 16.2542 102.901Z" stroke="white" stroke-miterlimit="10"/>
<path d="M16.2542 105.804C24.6134 105.804 31.3898 99.3049 31.3898 91.2882C31.3898 83.2715 24.6134 76.7726 16.2542 76.7726C7.89509 76.7726 1.11865 83.2715 1.11865 91.2882C1.11865 99.3049 7.89509 105.804 16.2542 105.804Z" stroke="white" stroke-miterlimit="10"/>
<path d="M16.2542 108.783C24.6134 108.783 31.3898 102.284 31.3898 94.2677C31.3898 86.251 24.6134 79.7522 16.2542 79.7522C7.89509 79.7522 1.11865 86.251 1.11865 94.2677C1.11865 102.284 7.89509 108.783 16.2542 108.783Z" stroke="white" stroke-miterlimit="10"/>
<path d="M16.2542 111.686C24.6134 111.686 31.3898 105.188 31.3898 97.1708C31.3898 89.1541 24.6134 82.6553 16.2542 82.6553C7.89509 82.6553 1.11865 89.1541 1.11865 97.1708C1.11865 105.188 7.89509 111.686 16.2542 111.686Z" stroke="white" stroke-miterlimit="10"/>
</svg>
