<svg width="119" height="122" viewBox="0 0 119 122" fill="none" xmlns="http://www.w3.org/2000/svg">
<path d="M21.8711 118.416C30.2303 118.416 37.0067 111.917 37.0067 103.901C37.0067 95.8839 30.2303 89.3851 21.8711 89.3851C13.512 89.3851 6.73555 95.8839 6.73555 103.901C6.73555 111.917 13.512 118.416 21.8711 118.416Z" stroke="white" stroke-miterlimit="10"/>
<path d="M21.8711 115.284C30.2303 115.284 37.0067 108.785 37.0067 100.768C37.0067 92.7516 30.2303 86.2528 21.8711 86.2528C13.512 86.2528 6.73555 92.7516 6.73555 100.768C6.73555 108.785 13.512 115.284 21.8711 115.284Z" stroke="white" stroke-miterlimit="10"/>
<path d="M21.8711 112.228C30.2303 112.228 37.0067 105.729 37.0067 97.7124C37.0067 89.6957 30.2303 83.1969 21.8711 83.1969C13.512 83.1969 6.73555 89.6957 6.73555 97.7124C6.73555 105.729 13.512 112.228 21.8711 112.228Z" stroke="white" stroke-miterlimit="10"/>
<path d="M21.8711 109.096C30.2303 109.096 37.0067 102.597 37.0067 94.5802C37.0067 86.5635 30.2303 80.0646 21.8711 80.0646C13.512 80.0646 6.73555 86.5635 6.73555 94.5802C6.73555 102.597 13.512 109.096 21.8711 109.096Z" stroke="white" stroke-miterlimit="10"/>
<path d="M21.8711 106.04C30.2303 106.04 37.0067 99.541 37.0067 91.5243C37.0067 83.5076 30.2303 77.0087 21.8711 77.0087C13.512 77.0087 6.73555 83.5076 6.73555 91.5243C6.73555 99.541 13.512 106.04 21.8711 106.04Z" stroke="white" stroke-miterlimit="10"/>
<path d="M21.8711 102.984C30.2303 102.984 37.0067 96.4851 37.0067 88.4683C37.0067 80.4516 30.2303 73.9528 21.8711 73.9528C13.512 73.9528 6.73555 80.4516 6.73555 88.4683C6.73555 96.4851 13.512 102.984 21.8711 102.984Z" stroke="white" stroke-miterlimit="10"/>
<path d="M21.8711 99.8516C30.2303 99.8516 37.0067 93.3527 37.0067 85.336C37.0067 77.3193 30.2303 70.8205 21.8711 70.8205C13.512 70.8205 6.73555 77.3193 6.73555 85.336C6.73555 93.3527 13.512 99.8516 21.8711 99.8516Z" stroke="white" stroke-miterlimit="10"/>
<path d="M21.8711 96.7956C30.2303 96.7956 37.0067 90.2968 37.0067 82.2801C37.0067 74.2634 30.2303 67.7646 21.8711 67.7646C13.512 67.7646 6.73555 74.2634 6.73555 82.2801C6.73555 90.2968 13.512 96.7956 21.8711 96.7956Z" stroke="white" stroke-miterlimit="10"/>
<path d="M21.8711 93.6634C30.2303 93.6634 37.0067 87.1646 37.0067 79.1479C37.0067 71.1311 30.2303 64.6323 21.8711 64.6323C13.512 64.6323 6.73555 71.1311 6.73555 79.1479C6.73555 87.1646 13.512 93.6634 21.8711 93.6634Z" stroke="white" stroke-miterlimit="10"/>
<path d="M21.8711 90.6075C30.2303 90.6075 37.0067 84.1086 37.0067 76.0919C37.0067 68.0752 30.2303 61.5764 21.8711 61.5764C13.512 61.5764 6.73555 68.0752 6.73555 76.0919C6.73555 84.1086 13.512 90.6075 21.8711 90.6075Z" stroke="white" stroke-miterlimit="10"/>
<path d="M22.9865 89.6907C31.3457 89.6907 38.1221 83.1918 38.1221 75.1751C38.1221 67.1584 31.3457 60.6596 22.9865 60.6596C14.6274 60.6596 7.85092 67.1584 7.85092 75.1751C7.85092 83.1918 14.6274 89.6907 22.9865 89.6907Z" stroke="white" stroke-miterlimit="10"/>
<path d="M24.978 89.6143C33.3372 89.6143 40.1136 83.1155 40.1136 75.0988C40.1136 67.0821 33.3372 60.5833 24.978 60.5833C16.6189 60.5833 9.84244 67.0821 9.84244 75.0988C9.84244 83.1155 16.6189 89.6143 24.978 89.6143Z" stroke="white" stroke-miterlimit="10"/>
<path d="M27.2084 89.6143C35.5676 89.6143 42.344 83.1155 42.344 75.0988C42.344 67.0821 35.5676 60.5833 27.2084 60.5833C18.8492 60.5833 12.0728 67.0821 12.0728 75.0988C12.0728 83.1155 18.8492 89.6143 27.2084 89.6143Z" stroke="white" stroke-miterlimit="10"/>
<path d="M29.7577 89.5379C38.1169 89.5379 44.8933 83.0391 44.8933 75.0224C44.8933 67.0057 38.1169 60.5068 29.7577 60.5068C21.3986 60.5068 14.6221 67.0057 14.6221 75.0224C14.6221 83.0391 21.3986 89.5379 29.7577 89.5379Z" stroke="white" stroke-miterlimit="10"/>
<path d="M32.5458 89.5379C40.905 89.5379 47.6814 83.0391 47.6814 75.0224C47.6814 67.0057 40.905 60.5068 32.5458 60.5068C24.1867 60.5068 17.4102 67.0057 17.4102 75.0224C17.4102 83.0391 24.1867 89.5379 32.5458 89.5379Z" stroke="white" stroke-miterlimit="10"/>
<path d="M35.5728 89.4615C43.932 89.4615 50.7084 82.9627 50.7084 74.946C50.7084 66.9293 43.932 60.4305 35.5728 60.4305C27.2136 60.4305 20.4372 66.9293 20.4372 74.946C20.4372 82.9627 27.2136 89.4615 35.5728 89.4615Z" stroke="white" stroke-miterlimit="10"/>
<path d="M38.839 89.4615C47.1981 89.4615 53.9746 82.9627 53.9746 74.946C53.9746 66.9293 47.1981 60.4305 38.839 60.4305C30.4798 60.4305 23.7034 66.9293 23.7034 74.946C23.7034 82.9627 30.4798 89.4615 38.839 89.4615Z" stroke="white" stroke-miterlimit="10"/>
<path d="M42.344 89.3851C50.7032 89.3851 57.4796 82.8862 57.4796 74.8695C57.4796 66.8528 50.7032 60.354 42.344 60.354C33.9848 60.354 27.2084 66.8528 27.2084 74.8695C27.2084 82.8862 33.9848 89.3851 42.344 89.3851Z" stroke="white" stroke-miterlimit="10"/>
<path d="M46.0085 89.3087C54.3676 89.3087 61.1441 82.8099 61.1441 74.7932C61.1441 66.7765 54.3676 60.2776 46.0085 60.2776C37.6493 60.2776 30.8729 66.7765 30.8729 74.7932C30.8729 82.8099 37.6493 89.3087 46.0085 89.3087Z" stroke="white" stroke-miterlimit="10"/>
<path d="M49.7525 89.3087C58.1117 89.3087 64.8881 82.8099 64.8881 74.7932C64.8881 66.7765 58.1117 60.2776 49.7525 60.2776C41.3933 60.2776 34.6169 66.7765 34.6169 74.7932C34.6169 82.8099 41.3933 89.3087 49.7525 89.3087Z" stroke="white" stroke-miterlimit="10"/>
<path d="M53.656 89.3087C62.0152 89.3087 68.7916 82.8099 68.7916 74.7932C68.7916 66.7765 62.0152 60.2776 53.656 60.2776C45.2969 60.2776 38.5204 66.7765 38.5204 74.7932C38.5204 82.8099 45.2969 89.3087 53.656 89.3087Z" stroke="white" stroke-miterlimit="10"/>
<path d="M57.6391 89.2323C65.9982 89.2323 72.7747 82.7335 72.7747 74.7168C72.7747 66.7001 65.9982 60.2013 57.6391 60.2013C49.2799 60.2013 42.5035 66.7001 42.5035 74.7168C42.5035 82.7335 49.2799 89.2323 57.6391 89.2323Z" stroke="white" stroke-miterlimit="10"/>
<path d="M61.7017 89.2323C70.0608 89.2323 76.8373 82.7335 76.8373 74.7168C76.8373 66.7001 70.0608 60.2013 61.7017 60.2013C53.3425 60.2013 46.5661 66.7001 46.5661 74.7168C46.5661 82.7335 53.3425 89.2323 61.7017 89.2323Z" stroke="white" stroke-miterlimit="10"/>
<path d="M65.7643 89.2323C74.1234 89.2323 80.8998 82.7335 80.8998 74.7168C80.8998 66.7001 74.1234 60.2013 65.7643 60.2013C57.4051 60.2013 50.6287 66.7001 50.6287 74.7168C50.6287 82.7335 57.4051 89.2323 65.7643 89.2323Z" stroke="white" stroke-miterlimit="10"/>
<path d="M69.827 89.1559C78.1862 89.1559 84.9626 82.6571 84.9626 74.6404C84.9626 66.6237 78.1862 60.1249 69.827 60.1249C61.4679 60.1249 54.6914 66.6237 54.6914 74.6404C54.6914 82.6571 61.4679 89.1559 69.827 89.1559Z" stroke="white" stroke-miterlimit="10"/>
<path d="M73.6508 88.9267C82.0099 88.9267 88.7864 82.4279 88.7864 74.4112C88.7864 66.3945 82.0099 59.8957 73.6508 59.8957C65.2916 59.8957 58.5152 66.3945 58.5152 74.4112C58.5152 82.4279 65.2916 88.9267 73.6508 88.9267Z" stroke="white" stroke-miterlimit="10"/>
<path d="M77.3151 88.3919C85.6743 88.3919 92.4507 81.8931 92.4507 73.8764C92.4507 65.8597 85.6743 59.3608 77.3151 59.3608C68.9559 59.3608 62.1795 65.8597 62.1795 73.8764C62.1795 81.8931 68.9559 88.3919 77.3151 88.3919Z" stroke="white" stroke-miterlimit="10"/>
<path d="M80.661 87.7044C89.0202 87.7044 95.7966 81.2056 95.7966 73.1889C95.7966 65.1722 89.0202 58.6733 80.661 58.6733C72.3019 58.6733 65.5254 65.1722 65.5254 73.1889C65.5254 81.2056 72.3019 87.7044 80.661 87.7044Z" stroke="white" stroke-miterlimit="10"/>
<path d="M83.8475 86.7876C92.2066 86.7876 98.9831 80.2888 98.9831 72.2721C98.9831 64.2554 92.2066 57.7565 83.8475 57.7565C75.4883 57.7565 68.7119 64.2554 68.7119 72.2721C68.7119 80.2888 75.4883 86.7876 83.8475 86.7876Z" stroke="white" stroke-miterlimit="10"/>
<path d="M86.7949 85.6417C95.154 85.6417 101.93 79.1428 101.93 71.1261C101.93 63.1094 95.154 56.6106 86.7949 56.6106C78.4357 56.6106 71.6593 63.1094 71.6593 71.1261C71.6593 79.1428 78.4357 85.6417 86.7949 85.6417Z" stroke="white" stroke-miterlimit="10"/>
<path d="M89.5035 84.2665C97.8626 84.2665 104.639 77.7677 104.639 69.751C104.639 61.7343 97.8626 55.2355 89.5035 55.2355C81.1443 55.2355 74.3679 61.7343 74.3679 69.751C74.3679 77.7677 81.1443 84.2665 89.5035 84.2665Z" stroke="white" stroke-miterlimit="10"/>
<path d="M91.9728 82.7386C100.332 82.7386 107.108 76.2398 107.108 68.223C107.108 60.2063 100.332 53.7075 91.9728 53.7075C83.6137 53.7075 76.8372 60.2063 76.8372 68.223C76.8372 76.2398 83.6137 82.7386 91.9728 82.7386Z" stroke="white" stroke-miterlimit="10"/>
<path d="M94.2034 80.9814C102.563 80.9814 109.339 74.4825 109.339 66.4658C109.339 58.4491 102.563 51.9503 94.2034 51.9503C85.8442 51.9503 79.0678 58.4491 79.0678 66.4658C79.0678 74.4825 85.8442 80.9814 94.2034 80.9814Z" stroke="white" stroke-miterlimit="10"/>
<path d="M96.1152 78.995C104.474 78.995 111.251 72.4962 111.251 64.4795C111.251 56.4628 104.474 49.964 96.1152 49.964C87.756 49.964 80.9796 56.4628 80.9796 64.4795C80.9796 72.4962 87.756 78.995 96.1152 78.995Z" stroke="white" stroke-miterlimit="10"/>
<path d="M97.8679 76.7795C106.227 76.7795 113.003 70.2806 113.003 62.2639C113.003 54.2472 106.227 47.7484 97.8679 47.7484C89.5087 47.7484 82.7323 54.2472 82.7323 62.2639C82.7323 70.2806 89.5087 76.7795 97.8679 76.7795Z" stroke="white" stroke-miterlimit="10"/>
<path d="M99.3813 74.4112C107.74 74.4112 114.517 67.9124 114.517 59.8957C114.517 51.879 107.74 45.3801 99.3813 45.3801C91.0222 45.3801 84.2457 51.879 84.2457 59.8957C84.2457 67.9124 91.0222 74.4112 99.3813 74.4112Z" stroke="white" stroke-miterlimit="10"/>
<path d="M100.576 71.8901C108.935 71.8901 115.712 65.3912 115.712 57.3745C115.712 49.3578 108.935 42.859 100.576 42.859C92.2171 42.859 85.4407 49.3578 85.4407 57.3745C85.4407 65.3912 92.2171 71.8901 100.576 71.8901Z" stroke="white" stroke-miterlimit="10"/>
<path d="M101.532 69.0634C109.891 69.0634 116.668 62.5646 116.668 54.5479C116.668 46.5312 109.891 40.0323 101.532 40.0323C93.173 40.0323 86.3965 46.5312 86.3965 54.5479C86.3965 62.5646 93.173 69.0634 101.532 69.0634Z" stroke="white" stroke-miterlimit="10"/>
<path d="M102.249 66.1603C110.608 66.1603 117.385 59.6614 117.385 51.6447C117.385 43.628 110.608 37.1292 102.249 37.1292C93.8901 37.1292 87.1136 43.628 87.1136 51.6447C87.1136 59.6614 93.8901 66.1603 102.249 66.1603Z" stroke="white" stroke-miterlimit="10"/>
<path d="M102.727 62.9516C111.086 62.9516 117.863 56.4528 117.863 48.4361C117.863 40.4194 111.086 33.9205 102.727 33.9205C94.3679 33.9205 87.5915 40.4194 87.5915 48.4361C87.5915 56.4528 94.3679 62.9516 102.727 62.9516Z" stroke="white" stroke-miterlimit="10"/>
<path d="M102.886 59.6665C111.246 59.6665 118.022 53.1677 118.022 45.151C118.022 37.1343 111.246 30.6354 102.886 30.6354C94.5272 30.6354 87.7508 37.1343 87.7508 45.151C87.7508 53.1677 94.5272 59.6665 102.886 59.6665Z" stroke="white" stroke-miterlimit="10"/>
<path d="M102.807 56.3814C111.166 56.3814 117.942 49.8826 117.942 41.8659C117.942 33.8492 111.166 27.3503 102.807 27.3503C94.4475 27.3503 87.671 33.8492 87.671 41.8659C87.671 49.8826 94.4475 56.3814 102.807 56.3814Z" stroke="white" stroke-miterlimit="10"/>
<path d="M102.408 53.3255C110.767 53.3255 117.544 46.8267 117.544 38.81C117.544 30.7933 110.767 24.2944 102.408 24.2944C94.0492 24.2944 87.2727 30.7933 87.2727 38.81C87.2727 46.8267 94.0492 53.3255 102.408 53.3255Z" stroke="white" stroke-miterlimit="10"/>
<path d="M101.691 50.4988C110.051 50.4988 116.827 43.9999 116.827 35.9832C116.827 27.9665 110.051 21.4677 101.691 21.4677C93.3323 21.4677 86.5558 27.9665 86.5558 35.9832C86.5558 43.9999 93.3323 50.4988 101.691 50.4988Z" stroke="white" stroke-miterlimit="10"/>
<path d="M100.656 47.7485C109.015 47.7485 115.792 41.2496 115.792 33.2329C115.792 25.2162 109.015 18.7174 100.656 18.7174C92.2969 18.7174 85.5204 25.2162 85.5204 33.2329C85.5204 41.2496 92.2969 47.7485 100.656 47.7485Z" stroke="white" stroke-miterlimit="10"/>
<path d="M99.4611 45.151C107.82 45.151 114.597 38.6522 114.597 30.6355C114.597 22.6188 107.82 16.1199 99.4611 16.1199C91.1019 16.1199 84.3255 22.6188 84.3255 30.6355C84.3255 38.6522 91.1019 45.151 99.4611 45.151Z" stroke="white" stroke-miterlimit="10"/>
<path d="M97.8679 42.7826C106.227 42.7826 113.003 36.2838 113.003 28.2671C113.003 20.2503 106.227 13.7515 97.8679 13.7515C89.5087 13.7515 82.7323 20.2503 82.7323 28.2671C82.7323 36.2838 89.5087 42.7826 97.8679 42.7826Z" stroke="white" stroke-miterlimit="10"/>
<path d="M96.1152 40.5671C104.474 40.5671 111.251 34.0683 111.251 26.0516C111.251 18.0349 104.474 11.5361 96.1152 11.5361C87.756 11.5361 80.9796 18.0349 80.9796 26.0516C80.9796 34.0683 87.756 40.5671 96.1152 40.5671Z" stroke="white" stroke-miterlimit="10"/>
<path d="M94.0439 38.5043C102.403 38.5043 109.18 32.0055 109.18 23.9888C109.18 15.9721 102.403 9.47327 94.0439 9.47327C85.6848 9.47327 78.9083 15.9721 78.9083 23.9888C78.9083 32.0055 85.6848 38.5043 94.0439 38.5043Z" stroke="white" stroke-miterlimit="10"/>
<path d="M91.7338 36.6708C100.093 36.6708 106.869 30.172 106.869 22.1553C106.869 14.1386 100.093 7.63977 91.7338 7.63977C83.3747 7.63977 76.5982 14.1386 76.5982 22.1553C76.5982 30.172 83.3747 36.6708 91.7338 36.6708Z" stroke="white" stroke-miterlimit="10"/>
<path d="M89.1847 35.0665C97.5439 35.0665 104.32 28.5677 104.32 20.551C104.32 12.5343 97.5439 6.03546 89.1847 6.03546C80.8255 6.03546 74.0491 12.5343 74.0491 20.551C74.0491 28.5677 80.8255 35.0665 89.1847 35.0665Z" stroke="white" stroke-miterlimit="10"/>
<path d="M86.3966 33.6149C94.7557 33.6149 101.532 27.1161 101.532 19.0994C101.532 11.0827 94.7557 4.58386 86.3966 4.58386C78.0374 4.58386 71.261 11.0827 71.261 19.0994C71.261 27.1161 78.0374 33.6149 86.3966 33.6149Z" stroke="white" stroke-miterlimit="10"/>
<path d="M83.4492 32.3926C91.8083 32.3926 98.5848 25.8937 98.5848 17.877C98.5848 9.86033 91.8083 3.36151 83.4492 3.36151C75.09 3.36151 68.3136 9.86033 68.3136 17.877C68.3136 25.8937 75.09 32.3926 83.4492 32.3926Z" stroke="white" stroke-miterlimit="10"/>
<path d="M80.2627 31.3994C88.6219 31.3994 95.3983 24.9006 95.3983 16.8839C95.3983 8.86717 88.6219 2.36835 80.2627 2.36835C71.9036 2.36835 65.1271 8.86717 65.1271 16.8839C65.1271 24.9006 71.9036 31.3994 80.2627 31.3994Z" stroke="white" stroke-miterlimit="10"/>
<path d="M76.8372 30.6354C85.1964 30.6354 91.9728 24.1366 91.9728 16.1199C91.9728 8.10319 85.1964 1.60437 76.8372 1.60437C68.4781 1.60437 61.7016 8.10319 61.7016 16.1199C61.7016 24.1366 68.4781 30.6354 76.8372 30.6354Z" stroke="white" stroke-miterlimit="10"/>
<path d="M73.2525 30.1006C81.6117 30.1006 88.3881 23.6018 88.3881 15.5851C88.3881 7.5684 81.6117 1.06958 73.2525 1.06958C64.8933 1.06958 58.1169 7.5684 58.1169 15.5851C58.1169 23.6018 64.8933 30.1006 73.2525 30.1006Z" stroke="white" stroke-miterlimit="10"/>
<path d="M69.5085 29.8715C77.8676 29.8715 84.6441 23.3727 84.6441 15.356C84.6441 7.33928 77.8676 0.840454 69.5085 0.840454C61.1493 0.840454 54.3729 7.33928 54.3729 15.356C54.3729 23.3727 61.1493 29.8715 69.5085 29.8715Z" stroke="white" stroke-miterlimit="10"/>
<path d="M65.844 29.795C74.2032 29.795 80.9796 23.2962 80.9796 15.2795C80.9796 7.2628 74.2032 0.763977 65.844 0.763977C57.4848 0.763977 50.7084 7.2628 50.7084 15.2795C50.7084 23.2962 57.4848 29.795 65.844 29.795Z" stroke="white" stroke-miterlimit="10"/>
<path d="M62.5778 29.795C70.937 29.795 77.7134 23.2962 77.7134 15.2795C77.7134 7.2628 70.937 0.763977 62.5778 0.763977C54.2186 0.763977 47.4422 7.2628 47.4422 15.2795C47.4422 23.2962 54.2186 29.795 62.5778 29.795Z" stroke="white" stroke-miterlimit="10"/>
<path d="M59.3914 29.795C67.7505 29.795 74.527 23.2962 74.527 15.2795C74.527 7.2628 67.7505 0.763977 59.3914 0.763977C51.0322 0.763977 44.2558 7.2628 44.2558 15.2795C44.2558 23.2962 51.0322 29.795 59.3914 29.795Z" stroke="white" stroke-miterlimit="10"/>
<path d="M56.2049 29.795C64.5641 29.795 71.3405 23.2962 71.3405 15.2795C71.3405 7.2628 64.5641 0.763977 56.2049 0.763977C47.8458 0.763977 41.0693 7.2628 41.0693 15.2795C41.0693 23.2962 47.8458 29.795 56.2049 29.795Z" stroke="white" stroke-miterlimit="10"/>
<path d="M52.939 29.795C61.2981 29.795 68.0745 23.2962 68.0745 15.2795C68.0745 7.2628 61.2981 0.763977 52.939 0.763977C44.5798 0.763977 37.8034 7.2628 37.8034 15.2795C37.8034 23.2962 44.5798 29.795 52.939 29.795Z" stroke="white" stroke-miterlimit="10"/>
<path d="M49.7525 29.795C58.1117 29.795 64.8881 23.2962 64.8881 15.2795C64.8881 7.2628 58.1117 0.763977 49.7525 0.763977C41.3933 0.763977 34.6169 7.2628 34.6169 15.2795C34.6169 23.2962 41.3933 29.795 49.7525 29.795Z" stroke="white" stroke-miterlimit="10"/>
<path d="M46.4865 29.795C54.8457 29.795 61.6221 23.2962 61.6221 15.2795C61.6221 7.2628 54.8457 0.763977 46.4865 0.763977C38.1274 0.763977 31.3509 7.2628 31.3509 15.2795C31.3509 23.2962 38.1274 29.795 46.4865 29.795Z" stroke="white" stroke-miterlimit="10"/>
<path d="M43.3001 29.795C51.6592 29.795 58.4357 23.2962 58.4357 15.2795C58.4357 7.2628 51.6592 0.763977 43.3001 0.763977C34.9409 0.763977 28.1645 7.2628 28.1645 15.2795C28.1645 23.2962 34.9409 29.795 43.3001 29.795Z" stroke="white" stroke-miterlimit="10"/>
<path d="M40.0339 29.795C48.3931 29.795 55.1695 23.2962 55.1695 15.2795C55.1695 7.2628 48.3931 0.763977 40.0339 0.763977C31.6747 0.763977 24.8983 7.2628 24.8983 15.2795C24.8983 23.2962 31.6747 29.795 40.0339 29.795Z" stroke="white" stroke-miterlimit="10"/>
<path d="M36.8475 29.795C45.2066 29.795 51.9831 23.2962 51.9831 15.2795C51.9831 7.2628 45.2066 0.763977 36.8475 0.763977C28.4883 0.763977 21.7119 7.2628 21.7119 15.2795C21.7119 23.2962 28.4883 29.795 36.8475 29.795Z" stroke="white" stroke-miterlimit="10"/>
<path d="M33.5813 29.795C41.9404 29.795 48.7169 23.2962 48.7169 15.2795C48.7169 7.2628 41.9404 0.763977 33.5813 0.763977C25.2221 0.763977 18.4457 7.2628 18.4457 15.2795C18.4457 23.2962 25.2221 29.795 33.5813 29.795Z" stroke="white" stroke-miterlimit="10"/>
<path d="M30.3948 29.795C38.754 29.795 45.5304 23.2962 45.5304 15.2795C45.5304 7.2628 38.754 0.763977 30.3948 0.763977C22.0357 0.763977 15.2592 7.2628 15.2592 15.2795C15.2592 23.2962 22.0357 29.795 30.3948 29.795Z" stroke="white" stroke-miterlimit="10"/>
<path d="M26.8898 29.8715C35.249 29.8715 42.0254 23.3727 42.0254 15.356C42.0254 7.33928 35.249 0.840454 26.8898 0.840454C18.5307 0.840454 11.7542 7.33928 11.7542 15.356C11.7542 23.3727 18.5307 29.8715 26.8898 29.8715Z" stroke="white" stroke-miterlimit="10"/>
<path d="M23.6236 30.4826C31.9828 30.4826 38.7592 23.9838 38.7592 15.9671C38.7592 7.95036 31.9828 1.45154 23.6236 1.45154C15.2645 1.45154 8.48805 7.95036 8.48805 15.9671C8.48805 23.9838 15.2645 30.4826 23.6236 30.4826Z" stroke="white" stroke-miterlimit="10"/>
<path d="M20.8355 31.7049C29.1947 31.7049 35.9711 25.2061 35.9711 17.1894C35.9711 9.17271 29.1947 2.67389 20.8355 2.67389C12.4764 2.67389 5.69992 9.17271 5.69992 17.1894C5.69992 25.2061 12.4764 31.7049 20.8355 31.7049Z" stroke="white" stroke-miterlimit="10"/>
<path d="M18.6847 33.5386C27.0439 33.5386 33.8203 27.0397 33.8203 19.023C33.8203 11.0063 27.0439 4.50751 18.6847 4.50751C10.3256 4.50751 3.54912 11.0063 3.54912 19.023C3.54912 27.0397 10.3256 33.5386 18.6847 33.5386Z" stroke="white" stroke-miterlimit="10"/>
<path d="M17.171 35.9832C25.5302 35.9832 32.3066 29.4844 32.3066 21.4677C32.3066 13.451 25.5302 6.95215 17.171 6.95215C8.81188 6.95215 2.03545 13.451 2.03545 21.4677C2.03545 29.4844 8.81188 35.9832 17.171 35.9832Z" stroke="white" stroke-miterlimit="10"/>
<path d="M16.2949 38.9628C24.654 38.9628 31.4305 32.4639 31.4305 24.4472C31.4305 16.4305 24.654 9.9317 16.2949 9.9317C7.93572 9.9317 1.15929 16.4305 1.15929 24.4472C1.15929 32.4639 7.93572 38.9628 16.2949 38.9628Z" stroke="white" stroke-miterlimit="10"/>
<path d="M16.1356 42.4006C24.4948 42.4006 31.2712 35.9018 31.2712 27.8851C31.2712 19.8684 24.4948 13.3696 16.1356 13.3696C7.77644 13.3696 1 19.8684 1 27.8851C1 35.9018 7.77644 42.4006 16.1356 42.4006Z" stroke="white" stroke-miterlimit="10"/>
<path d="M16.1356 45.4565C24.4948 45.4565 31.2712 38.9577 31.2712 30.941C31.2712 22.9243 24.4948 16.4255 16.1356 16.4255C7.77644 16.4255 1 22.9243 1 30.941C1 38.9577 7.77644 45.4565 16.1356 45.4565Z" stroke="white" stroke-miterlimit="10"/>
<path d="M16.1356 48.5888C24.4948 48.5888 31.2712 42.09 31.2712 34.0733C31.2712 26.0566 24.4948 19.5577 16.1356 19.5577C7.77644 19.5577 1 26.0566 1 34.0733C1 42.09 7.77644 48.5888 16.1356 48.5888Z" stroke="white" stroke-miterlimit="10"/>
<path d="M16.1356 51.6448C24.4948 51.6448 31.2712 45.1459 31.2712 37.1292C31.2712 29.1125 24.4948 22.6137 16.1356 22.6137C7.77644 22.6137 1 29.1125 1 37.1292C1 45.1459 7.77644 51.6448 16.1356 51.6448Z" stroke="white" stroke-miterlimit="10"/>
<path d="M16.1356 54.777C24.4948 54.777 31.2712 48.2782 31.2712 40.2615C31.2712 32.2448 24.4948 25.746 16.1356 25.746C7.77644 25.746 1 32.2448 1 40.2615C1 48.2782 7.77644 54.777 16.1356 54.777Z" stroke="white" stroke-miterlimit="10"/>
<path d="M16.1356 57.8329C24.4948 57.8329 31.2712 51.3341 31.2712 43.3174C31.2712 35.3007 24.4948 28.8019 16.1356 28.8019C7.77644 28.8019 1 35.3007 1 43.3174C1 51.3341 7.77644 57.8329 16.1356 57.8329Z" stroke="white" stroke-miterlimit="10"/>
<path d="M16.1356 60.9653C24.4948 60.9653 31.2712 54.4664 31.2712 46.4497C31.2712 38.433 24.4948 31.9342 16.1356 31.9342C7.77644 31.9342 1 38.433 1 46.4497C1 54.4664 7.77644 60.9653 16.1356 60.9653Z" stroke="white" stroke-miterlimit="10"/>
<path d="M16.1356 64.0212C24.4948 64.0212 31.2712 57.5223 31.2712 49.5056C31.2712 41.4889 24.4948 34.9901 16.1356 34.9901C7.77644 34.9901 1 41.4889 1 49.5056C1 57.5223 7.77644 64.0212 16.1356 64.0212Z" stroke="white" stroke-miterlimit="10"/>
<path d="M16.1356 67.0771C24.4948 67.0771 31.2712 60.5783 31.2712 52.5615C31.2712 44.5448 24.4948 38.046 16.1356 38.046C7.77644 38.046 1 44.5448 1 52.5615C1 60.5783 7.77644 67.0771 16.1356 67.0771Z" stroke="white" stroke-miterlimit="10"/>
<path d="M16.1356 70.2093C24.4948 70.2093 31.2712 63.7105 31.2712 55.6938C31.2712 47.6771 24.4948 41.1783 16.1356 41.1783C7.77644 41.1783 1 47.6771 1 55.6938C1 63.7105 7.77644 70.2093 16.1356 70.2093Z" stroke="white" stroke-miterlimit="10"/>
<path d="M16.1356 73.2652C24.4948 73.2652 31.2712 66.7664 31.2712 58.7497C31.2712 50.733 24.4948 44.2342 16.1356 44.2342C7.77644 44.2342 1 50.733 1 58.7497C1 66.7664 7.77644 73.2652 16.1356 73.2652Z" stroke="white" stroke-miterlimit="10"/>
<path d="M16.1356 76.3975C24.4948 76.3975 31.2712 69.8987 31.2712 61.882C31.2712 53.8653 24.4948 47.3665 16.1356 47.3665C7.77644 47.3665 1 53.8653 1 61.882C1 69.8987 7.77644 76.3975 16.1356 76.3975Z" stroke="white" stroke-miterlimit="10"/>
<path d="M16.1356 79.4534C24.4948 79.4534 31.2712 72.9546 31.2712 64.9379C31.2712 56.9212 24.4948 50.4224 16.1356 50.4224C7.77644 50.4224 1 56.9212 1 64.9379C1 72.9546 7.77644 79.4534 16.1356 79.4534Z" stroke="white" stroke-miterlimit="10"/>
<path d="M16.1356 82.5857C24.4948 82.5857 31.2712 76.0869 31.2712 68.0702C31.2712 60.0535 24.4948 53.5547 16.1356 53.5547C7.77644 53.5547 1 60.0535 1 68.0702C1 76.0869 7.77644 82.5857 16.1356 82.5857Z" stroke="white" stroke-miterlimit="10"/>
<path d="M16.1356 85.6417C24.4948 85.6417 31.2712 79.1428 31.2712 71.1261C31.2712 63.1094 24.4948 56.6106 16.1356 56.6106C7.77644 56.6106 1 63.1094 1 71.1261C1 79.1428 7.77644 85.6417 16.1356 85.6417Z" stroke="white" stroke-miterlimit="10"/>
<path d="M16.1356 88.774C24.4948 88.774 31.2712 82.2752 31.2712 74.2584C31.2712 66.2417 24.4948 59.7429 16.1356 59.7429C7.77644 59.7429 1 66.2417 1 74.2584C1 82.2752 7.77644 88.774 16.1356 88.774Z" stroke="white" stroke-miterlimit="10"/>
<path d="M16.1356 91.8298C24.4948 91.8298 31.2712 85.331 31.2712 77.3143C31.2712 69.2976 24.4948 62.7988 16.1356 62.7988C7.77644 62.7988 1 69.2976 1 77.3143C1 85.331 7.77644 91.8298 16.1356 91.8298Z" stroke="white" stroke-miterlimit="10"/>
<path d="M16.1356 94.9621C24.4948 94.9621 31.2712 88.4633 31.2712 80.4466C31.2712 72.4299 24.4948 65.9311 16.1356 65.9311C7.77644 65.9311 1 72.4299 1 80.4466C1 88.4633 7.77644 94.9621 16.1356 94.9621Z" stroke="white" stroke-miterlimit="10"/>
<path d="M16.1356 98.0181C24.4948 98.0181 31.2712 91.5192 31.2712 83.5025C31.2712 75.4858 24.4948 68.987 16.1356 68.987C7.77644 68.987 1 75.4858 1 83.5025C1 91.5192 7.77644 98.0181 16.1356 98.0181Z" stroke="white" stroke-miterlimit="10"/>
<path d="M16.1356 101.074C24.4948 101.074 31.2712 94.5751 31.2712 86.5584C31.2712 78.5417 24.4948 72.0428 16.1356 72.0428C7.77644 72.0428 1 78.5417 1 86.5584C1 94.5751 7.77644 101.074 16.1356 101.074Z" stroke="white" stroke-miterlimit="10"/>
<path d="M16.1356 104.206C24.4948 104.206 31.2712 97.7074 31.2712 89.6907C31.2712 81.674 24.4948 75.1752 16.1356 75.1752C7.77644 75.1752 1 81.674 1 89.6907C1 97.7074 7.77644 104.206 16.1356 104.206Z" stroke="white" stroke-miterlimit="10"/>
<path d="M16.1356 107.262C24.4948 107.262 31.2712 100.763 31.2712 92.7466C31.2712 84.7299 24.4948 78.2311 16.1356 78.2311C7.77644 78.2311 1 84.7299 1 92.7466C1 100.763 7.77644 107.262 16.1356 107.262Z" stroke="white" stroke-miterlimit="10"/>
<path d="M16.1356 110.394C24.4948 110.394 31.2712 103.896 31.2712 95.8789C31.2712 87.8622 24.4948 81.3633 16.1356 81.3633C7.77644 81.3633 1 87.8622 1 95.8789C1 103.896 7.77644 110.394 16.1356 110.394Z" stroke="white" stroke-miterlimit="10"/>
<path d="M16.1356 113.45C24.4948 113.45 31.2712 106.951 31.2712 98.9348C31.2712 90.9181 24.4948 84.4193 16.1356 84.4193C7.77644 84.4193 1 90.9181 1 98.9348C1 106.951 7.77644 113.45 16.1356 113.45Z" stroke="white" stroke-miterlimit="10"/>
<path d="M16.1356 116.583C24.4948 116.583 31.2712 110.084 31.2712 102.067C31.2712 94.0504 24.4948 87.5516 16.1356 87.5516C7.77644 87.5516 1 94.0504 1 102.067C1 110.084 7.77644 116.583 16.1356 116.583Z" stroke="white" stroke-miterlimit="10"/>
<path d="M16.3744 119.639C24.7336 119.639 31.51 113.14 31.51 105.123C31.51 97.1063 24.7336 90.6075 16.3744 90.6075C8.01527 90.6075 1.23883 97.1063 1.23883 105.123C1.23883 113.14 8.01527 119.639 16.3744 119.639Z" stroke="white" stroke-miterlimit="10"/>
<path d="M19.0035 121.166C27.3626 121.166 34.1391 114.668 34.1391 106.651C34.1391 98.6343 27.3626 92.1354 19.0035 92.1354C10.6443 92.1354 3.86787 98.6343 3.86787 106.651C3.86787 114.668 10.6443 121.166 19.0035 121.166Z" stroke="white" stroke-miterlimit="10"/>
<path d="M75.1645 94.1218C83.5237 94.1218 90.3001 87.6229 90.3001 79.6062C90.3001 71.5895 83.5237 65.0907 75.1645 65.0907C66.8053 65.0907 60.0289 71.5895 60.0289 79.6062C60.0289 87.6229 66.8053 94.1218 75.1645 94.1218Z" stroke="white" stroke-miterlimit="10"/>
<path d="M76.2797 95.1913C84.6388 95.1913 91.4153 88.6925 91.4153 80.6758C91.4153 72.6591 84.6388 66.1603 76.2797 66.1603C67.9205 66.1603 61.1441 72.6591 61.1441 80.6758C61.1441 88.6925 67.9205 95.1913 76.2797 95.1913Z" stroke="white" stroke-miterlimit="10"/>
<path d="M77.3948 96.1845C85.754 96.1845 92.5304 89.6857 92.5304 81.669C92.5304 73.6523 85.754 67.1534 77.3948 67.1534C69.0357 67.1534 62.2592 73.6523 62.2592 81.669C62.2592 89.6857 69.0357 96.1845 77.3948 96.1845Z" stroke="white" stroke-miterlimit="10"/>
<path d="M78.51 97.2541C86.8692 97.2541 93.6456 90.7553 93.6456 82.7386C93.6456 74.7218 86.8692 68.223 78.51 68.223C70.1509 68.223 63.3744 74.7218 63.3744 82.7386C63.3744 90.7553 70.1509 97.2541 78.51 97.2541Z" stroke="white" stroke-miterlimit="10"/>
<path d="M79.6254 98.3236C87.9846 98.3236 94.761 91.8248 94.761 83.8081C94.761 75.7914 87.9846 69.2925 79.6254 69.2925C71.2662 69.2925 64.4898 75.7914 64.4898 83.8081C64.4898 91.8248 71.2662 98.3236 79.6254 98.3236Z" stroke="white" stroke-miterlimit="10"/>
<path d="M80.7408 99.3932C89.0999 99.3932 95.8764 92.8944 95.8764 84.8776C95.8764 76.8609 89.0999 70.3621 80.7408 70.3621C72.3816 70.3621 65.6052 76.8609 65.6052 84.8776C65.6052 92.8944 72.3816 99.3932 80.7408 99.3932Z" stroke="white" stroke-miterlimit="10"/>
<path d="M81.8559 100.463C90.2151 100.463 96.9915 93.9639 96.9915 85.9472C96.9915 77.9305 90.2151 71.4317 81.8559 71.4317C73.4968 71.4317 66.7203 77.9305 66.7203 85.9472C66.7203 93.9639 73.4968 100.463 81.8559 100.463Z" stroke="white" stroke-miterlimit="10"/>
<path d="M82.9711 101.532C91.3303 101.532 98.1067 95.0335 98.1067 87.0168C98.1067 79.0001 91.3303 72.5013 82.9711 72.5013C74.6119 72.5013 67.8355 79.0001 67.8355 87.0168C67.8355 95.0335 74.6119 101.532 82.9711 101.532Z" stroke="white" stroke-miterlimit="10"/>
<path d="M84.0067 102.526C92.3659 102.526 99.1423 96.0267 99.1423 88.01C99.1423 79.9933 92.3659 73.4944 84.0067 73.4944C75.6476 73.4944 68.8712 79.9933 68.8712 88.01C68.8712 96.0267 75.6476 102.526 84.0067 102.526Z" stroke="white" stroke-miterlimit="10"/>
<path d="M85.1221 103.595C93.4813 103.595 100.258 97.0962 100.258 89.0795C100.258 81.0628 93.4813 74.564 85.1221 74.564C76.7629 74.564 69.9865 81.0628 69.9865 89.0795C69.9865 97.0962 76.7629 103.595 85.1221 103.595Z" stroke="white" stroke-miterlimit="10"/>
<path d="M86.2373 104.665C94.5964 104.665 101.373 98.1658 101.373 90.1491C101.373 82.1324 94.5964 75.6335 86.2373 75.6335C77.8781 75.6335 71.1017 82.1324 71.1017 90.1491C71.1017 98.1658 77.8781 104.665 86.2373 104.665Z" stroke="white" stroke-miterlimit="10"/>
<path d="M87.3525 105.734C95.7116 105.734 102.488 99.2354 102.488 91.2187C102.488 83.2019 95.7116 76.7031 87.3525 76.7031C78.9933 76.7031 72.2169 83.2019 72.2169 91.2187C72.2169 99.2354 78.9933 105.734 87.3525 105.734Z" stroke="white" stroke-miterlimit="10"/>
<path d="M88.4676 106.804C96.8268 106.804 103.603 100.305 103.603 92.2882C103.603 84.2715 96.8268 77.7727 88.4676 77.7727C80.1085 77.7727 73.332 84.2715 73.332 92.2882C73.332 100.305 80.1085 106.804 88.4676 106.804Z" stroke="white" stroke-miterlimit="10"/>
<path d="M89.583 107.873C97.9422 107.873 104.719 101.375 104.719 93.3578C104.719 85.3411 97.9422 78.8423 89.583 78.8423C81.2239 78.8423 74.4474 85.3411 74.4474 93.3578C74.4474 101.375 81.2239 107.873 89.583 107.873Z" stroke="white" stroke-miterlimit="10"/>
<path d="M90.6984 108.867C99.0576 108.867 105.834 102.368 105.834 94.351C105.834 86.3343 99.0576 79.8354 90.6984 79.8354C82.3392 79.8354 75.5628 86.3343 75.5628 94.351C75.5628 102.368 82.3392 108.867 90.6984 108.867Z" stroke="white" stroke-miterlimit="10"/>
<path d="M91.7338 109.936C100.093 109.936 106.869 103.437 106.869 95.4205C106.869 87.4038 100.093 80.905 91.7338 80.905C83.3747 80.905 76.5982 87.4038 76.5982 95.4205C76.5982 103.437 83.3747 109.936 91.7338 109.936Z" stroke="white" stroke-miterlimit="10"/>
<path d="M92.849 111.006C101.208 111.006 107.985 104.507 107.985 96.4901C107.985 88.4734 101.208 81.9745 92.849 81.9745C84.4898 81.9745 77.7134 88.4734 77.7134 96.4901C77.7134 104.507 84.4898 111.006 92.849 111.006Z" stroke="white" stroke-miterlimit="10"/>
<path d="M93.9644 112.075C102.324 112.075 109.1 105.576 109.1 97.5596C109.1 89.5429 102.324 83.0441 93.9644 83.0441C85.6052 83.0441 78.8288 89.5429 78.8288 97.5596C78.8288 105.576 85.6052 112.075 93.9644 112.075Z" stroke="white" stroke-miterlimit="10"/>
<path d="M95.0797 113.145C103.439 113.145 110.215 106.646 110.215 98.6292C110.215 90.6125 103.439 84.1137 95.0797 84.1137C86.7206 84.1137 79.9442 90.6125 79.9442 98.6292C79.9442 106.646 86.7206 113.145 95.0797 113.145Z" stroke="white" stroke-miterlimit="10"/>
<path d="M96.1949 114.214C104.554 114.214 111.331 107.715 111.331 99.6988C111.331 91.6821 104.554 85.1832 96.1949 85.1832C87.8358 85.1832 81.0593 91.6821 81.0593 99.6988C81.0593 107.715 87.8358 114.214 96.1949 114.214Z" stroke="white" stroke-miterlimit="10"/>
<path d="M97.3101 115.207C105.669 115.207 112.446 108.709 112.446 100.692C112.446 92.6752 105.669 86.1764 97.3101 86.1764C88.9509 86.1764 82.1745 92.6752 82.1745 100.692C82.1745 108.709 88.9509 115.207 97.3101 115.207Z" stroke="white" stroke-miterlimit="10"/>
<path d="M98.4253 116.277C106.784 116.277 113.561 109.778 113.561 101.761C113.561 93.7448 106.784 87.246 98.4253 87.246C90.0661 87.246 83.2897 93.7448 83.2897 101.761C83.2897 109.778 90.0661 116.277 98.4253 116.277Z" stroke="white" stroke-miterlimit="10"/>
<path d="M99.3016 117.499C107.661 117.499 114.437 111.001 114.437 102.984C114.437 94.9671 107.661 88.4683 99.3016 88.4683C90.9425 88.4683 84.166 94.9671 84.166 102.984C84.166 111.001 90.9425 117.499 99.3016 117.499Z" stroke="white" stroke-miterlimit="10"/>
<path d="M99.3813 118.951C107.74 118.951 114.517 112.452 114.517 104.435C114.517 96.4187 107.74 89.9199 99.3813 89.9199C91.0222 89.9199 84.2457 96.4187 84.2457 104.435C84.2457 112.452 91.0222 118.951 99.3813 118.951Z" stroke="white" stroke-miterlimit="10"/>
<path d="M98.5848 120.326C106.944 120.326 113.72 113.827 113.72 105.811C113.72 97.7939 106.944 91.295 98.5848 91.295C90.2256 91.295 83.4492 97.7939 83.4492 105.811C83.4492 113.827 90.2256 120.326 98.5848 120.326Z" stroke="white" stroke-miterlimit="10"/>
<path d="M97.3101 121.09C105.669 121.09 112.446 114.591 112.446 106.574C112.446 98.5578 105.669 92.059 97.3101 92.059C88.9509 92.059 82.1745 98.5578 82.1745 106.574C82.1745 114.591 88.9509 121.09 97.3101 121.09Z" stroke="white" stroke-miterlimit="10"/>
<path d="M95.7966 121.09C104.156 121.09 110.932 114.591 110.932 106.574C110.932 98.5578 104.156 92.059 95.7966 92.059C87.4374 92.059 80.661 98.5578 80.661 106.574C80.661 114.591 87.4374 121.09 95.7966 121.09Z" stroke="white" stroke-miterlimit="10"/>
<path d="M94.4422 120.326C102.801 120.326 109.578 113.827 109.578 105.811C109.578 97.7939 102.801 91.295 94.4422 91.295C86.0831 91.295 79.3066 97.7939 79.3066 105.811C79.3066 113.827 86.0831 120.326 94.4422 120.326Z" stroke="white" stroke-miterlimit="10"/>
<path d="M93.3271 119.257C101.686 119.257 108.463 112.758 108.463 104.741C108.463 96.7243 101.686 90.2255 93.3271 90.2255C84.9679 90.2255 78.1915 96.7243 78.1915 104.741C78.1915 112.758 84.9679 119.257 93.3271 119.257Z" stroke="white" stroke-miterlimit="10"/>
<path d="M92.2119 118.187C100.571 118.187 107.347 111.688 107.347 103.671C107.347 95.6547 100.571 89.1559 92.2119 89.1559C83.8527 89.1559 77.0763 95.6547 77.0763 103.671C77.0763 111.688 83.8527 118.187 92.2119 118.187Z" stroke="white" stroke-miterlimit="10"/>
<path d="M91.0967 117.117C99.4558 117.117 106.232 110.619 106.232 102.602C106.232 94.5852 99.4558 88.0864 91.0967 88.0864C82.7375 88.0864 75.9611 94.5852 75.9611 102.602C75.9611 110.619 82.7375 117.117 91.0967 117.117Z" stroke="white" stroke-miterlimit="10"/>
<path d="M89.9813 116.048C98.3405 116.048 105.117 109.549 105.117 101.532C105.117 93.5156 98.3405 87.0168 89.9813 87.0168C81.6222 87.0168 74.8457 93.5156 74.8457 101.532C74.8457 109.549 81.6222 116.048 89.9813 116.048Z" stroke="white" stroke-miterlimit="10"/>
<path d="M88.9457 115.055C97.3048 115.055 104.081 108.556 104.081 100.539C104.081 92.5224 97.3048 86.0236 88.9457 86.0236C80.5865 86.0236 73.8101 92.5224 73.8101 100.539C73.8101 108.556 80.5865 115.055 88.9457 115.055Z" stroke="white" stroke-miterlimit="10"/>
<path d="M87.8305 113.985C96.1897 113.985 102.966 107.486 102.966 99.4696C102.966 91.4529 96.1897 84.954 87.8305 84.954C79.4714 84.954 72.6949 91.4529 72.6949 99.4696C72.6949 107.486 79.4714 113.985 87.8305 113.985Z" stroke="white" stroke-miterlimit="10"/>
<path d="M86.7153 112.916C95.0745 112.916 101.851 106.417 101.851 98.4C101.851 90.3833 95.0745 83.8845 86.7153 83.8845C78.3562 83.8845 71.5797 90.3833 71.5797 98.4C71.5797 106.417 78.3562 112.916 86.7153 112.916Z" stroke="white" stroke-miterlimit="10"/>
<path d="M85.6 111.846C93.9591 111.846 100.736 105.347 100.736 97.3305C100.736 89.3138 93.9591 82.8149 85.6 82.8149C77.2408 82.8149 70.4644 89.3138 70.4644 97.3305C70.4644 105.347 77.2408 111.846 85.6 111.846Z" stroke="white" stroke-miterlimit="10"/>
<path d="M84.4846 110.776C92.8438 110.776 99.6202 104.278 99.6202 96.2609C99.6202 88.2442 92.8438 81.7454 84.4846 81.7454C76.1254 81.7454 69.349 88.2442 69.349 96.2609C69.349 104.278 76.1254 110.776 84.4846 110.776Z" stroke="white" stroke-miterlimit="10"/>
<path d="M83.3694 109.707C91.7286 109.707 98.505 103.208 98.505 95.1913C98.505 87.1746 91.7286 80.6758 83.3694 80.6758C75.0103 80.6758 68.2338 87.1746 68.2338 95.1913C68.2338 103.208 75.0103 109.707 83.3694 109.707Z" stroke="white" stroke-miterlimit="10"/>
<path d="M82.2542 108.714C90.6134 108.714 97.3898 102.215 97.3898 94.1981C97.3898 86.1814 90.6134 79.6826 82.2542 79.6826C73.8951 79.6826 67.1187 86.1814 67.1187 94.1981C67.1187 102.215 73.8951 108.714 82.2542 108.714Z" stroke="white" stroke-miterlimit="10"/>
<path d="M81.2186 107.644C89.5778 107.644 96.3542 101.145 96.3542 93.1286C96.3542 85.1119 89.5778 78.6131 81.2186 78.6131C72.8594 78.6131 66.083 85.1119 66.083 93.1286C66.083 101.145 72.8594 107.644 81.2186 107.644Z" stroke="white" stroke-miterlimit="10"/>
<path d="M80.1032 106.575C88.4624 106.575 95.2388 100.076 95.2388 92.059C95.2388 84.0423 88.4624 77.5435 80.1032 77.5435C71.7441 77.5435 64.9677 84.0423 64.9677 92.059C64.9677 100.076 71.7441 106.575 80.1032 106.575Z" stroke="white" stroke-miterlimit="10"/>
<path d="M78.988 105.505C87.3472 105.505 94.1236 99.0062 94.1236 90.9895C94.1236 82.9728 87.3472 76.4739 78.988 76.4739C70.6289 76.4739 63.8524 82.9728 63.8524 90.9895C63.8524 99.0062 70.6289 105.505 78.988 105.505Z" stroke="white" stroke-miterlimit="10"/>
<path d="M77.8729 104.435C86.2321 104.435 93.0085 97.9366 93.0085 89.9199C93.0085 81.9032 86.2321 75.4044 77.8729 75.4044C69.5137 75.4044 62.7373 81.9032 62.7373 89.9199C62.7373 97.9366 69.5137 104.435 77.8729 104.435Z" stroke="white" stroke-miterlimit="10"/>
<path d="M76.7577 103.366C85.1169 103.366 91.8933 96.8671 91.8933 88.8504C91.8933 80.8337 85.1169 74.3348 76.7577 74.3348C68.3985 74.3348 61.6221 80.8337 61.6221 88.8504C61.6221 96.8671 68.3985 103.366 76.7577 103.366Z" stroke="white" stroke-miterlimit="10"/>
<path d="M75.6423 102.373C84.0015 102.373 90.7779 95.8738 90.7779 87.8571C90.7779 79.8404 84.0015 73.3416 75.6423 73.3416C67.2831 73.3416 60.5067 79.8404 60.5067 87.8571C60.5067 95.8738 67.2831 102.373 75.6423 102.373Z" stroke="white" stroke-miterlimit="10"/>
<path d="M74.527 101.303C82.8861 101.303 89.6626 94.8043 89.6626 86.7876C89.6626 78.7709 82.8861 72.272 74.527 72.272C66.1678 72.272 59.3914 78.7709 59.3914 86.7876C59.3914 94.8043 66.1678 101.303 74.527 101.303Z" stroke="white" stroke-miterlimit="10"/>
<path d="M73.4118 100.234C81.7709 100.234 88.5474 93.7347 88.5474 85.718C88.5474 77.7013 81.7709 71.2025 73.4118 71.2025C65.0526 71.2025 58.2762 77.7013 58.2762 85.718C58.2762 93.7347 65.0526 100.234 73.4118 100.234Z" stroke="white" stroke-miterlimit="10"/>
<path d="M72.3763 99.1641C80.7355 99.1641 87.5119 92.6652 87.5119 84.6485C87.5119 76.6318 80.7355 70.133 72.3763 70.133C64.0172 70.133 57.2408 76.6318 57.2408 84.6485C57.2408 92.6652 64.0172 99.1641 72.3763 99.1641Z" stroke="white" stroke-miterlimit="10"/>
<path d="M71.261 98.0944C79.6201 98.0944 86.3966 91.5956 86.3966 83.5789C86.3966 75.5622 79.6201 69.0634 71.261 69.0634C62.9018 69.0634 56.1254 75.5622 56.1254 83.5789C56.1254 91.5956 62.9018 98.0944 71.261 98.0944Z" stroke="white" stroke-miterlimit="10"/>
<path d="M70.3848 96.8721C78.744 96.8721 85.5204 90.3733 85.5204 82.3566C85.5204 74.3399 78.744 67.8411 70.3848 67.8411C62.0257 67.8411 55.2492 74.3399 55.2492 82.3566C55.2492 90.3733 62.0257 96.8721 70.3848 96.8721Z" stroke="white" stroke-miterlimit="10"/>
<path d="M70.3848 95.4205C78.744 95.4205 85.5204 88.9217 85.5204 80.905C85.5204 72.8883 78.744 66.3895 70.3848 66.3895C62.0257 66.3895 55.2492 72.8883 55.2492 80.905C55.2492 88.9217 62.0257 95.4205 70.3848 95.4205Z" stroke="white" stroke-miterlimit="10"/>
<path d="M71.1017 94.1218C79.4608 94.1218 86.2373 87.6229 86.2373 79.6062C86.2373 71.5895 79.4608 65.0907 71.1017 65.0907C62.7425 65.0907 55.9661 71.5895 55.9661 79.6062C55.9661 87.6229 62.7425 94.1218 71.1017 94.1218Z" stroke="white" stroke-miterlimit="10"/>
</svg>
